<svg width="50" height="49" viewBox="0 0 50 49" fill="none" xmlns="http://www.w3.org/2000/svg">
<path d="M26.7068 7.17589C27.9828 7.17589 29.0883 7.41239 30.0233 7.8854C30.9583 8.3584 31.6733 9.02391 32.1683 9.88192C32.6743 10.7399 32.9274 11.7299 32.9274 12.8519C32.9274 13.754 32.7679 14.6065 32.4488 15.4095C32.1408 16.2125 31.6898 16.8615 31.0958 17.3565C30.5018 17.8515 29.7978 18.099 28.9838 18.099C28.4118 18.099 27.9498 17.9835 27.5978 17.7525C27.2458 17.5105 27.0203 17.1695 26.9213 16.7295C26.6023 17.1585 26.1898 17.4995 25.6838 17.7525C25.1778 17.9945 24.6443 18.1155 24.0833 18.1155C23.2473 18.1155 22.5927 17.868 22.1197 17.373C21.6467 16.867 21.4102 16.1795 21.4102 15.3105C21.4102 14.4855 21.5807 13.7155 21.9217 13.0004C22.2627 12.2854 22.7357 11.7134 23.3408 11.2844C23.9458 10.8444 24.6278 10.6244 25.3868 10.6244C26.3328 10.6244 26.9818 10.9544 27.3338 11.6144L27.4823 10.7564H29.4128L28.6373 15.2115C28.6043 15.4205 28.5878 15.613 28.5878 15.789C28.5878 16.053 28.6428 16.251 28.7528 16.383C28.8628 16.515 29.0498 16.581 29.3138 16.581C29.7098 16.581 30.0398 16.394 30.3038 16.02C30.5788 15.646 30.7823 15.1785 30.9143 14.6175C31.0573 14.0565 31.1288 13.4955 31.1288 12.9344C31.1288 11.6034 30.7218 10.5749 29.9078 9.84892C29.0938 9.11191 27.9443 8.7434 26.4593 8.7434C25.1943 8.7434 24.0503 9.05141 23.0272 9.66741C22.0042 10.2724 21.2012 11.1029 20.6182 12.1589C20.0462 13.204 19.7602 14.37 19.7602 15.657C19.7602 17.021 20.1617 18.0715 20.9647 18.8085C21.7787 19.5455 22.9282 19.914 24.4133 19.914C25.4803 19.914 26.4208 19.7215 27.2348 19.3365L27.5648 20.8545C26.5198 21.2945 25.3593 21.5145 24.0833 21.5145C22.8512 21.5145 21.7732 21.278 20.8492 20.805C19.9252 20.343 19.2102 19.683 18.7042 18.825C18.1982 17.967 17.9452 16.9715 17.9452 15.8385C17.9452 14.2215 18.3192 12.7529 19.0672 11.4329C19.8262 10.1129 20.8712 9.07341 22.2022 8.3144C23.5443 7.55539 25.0458 7.17589 26.7068 7.17589ZM24.8093 16.3995C25.2053 16.3995 25.5683 16.284 25.8983 16.053C26.2283 15.822 26.4868 15.514 26.6738 15.129C26.8718 14.744 26.9708 14.3315 26.9708 13.8915C26.9708 13.4295 26.8443 13.0554 26.5913 12.7694C26.3383 12.4834 25.9863 12.3404 25.5353 12.3404C25.1283 12.3404 24.7708 12.4669 24.4628 12.7199C24.1548 12.9619 23.9128 13.281 23.7368 13.677C23.5718 14.073 23.4893 14.491 23.4893 14.931C23.4893 15.382 23.5993 15.7395 23.8193 16.0035C24.0393 16.2675 24.3693 16.3995 24.8093 16.3995Z" fill="#0E0670"/>
<path d="M37 24C37 24.5523 37.4477 25 38 25C38.5523 25 39 24.5523 39 24H37ZM14.5 3H36.5V1H14.5V3ZM37 3.50002V24H39V3.50002H37ZM14 24V3.50002H12V24H14ZM36.5 3C36.7761 3 37 3.22386 37 3.50002H39C39 2.1193 37.8807 1 36.5 1V3ZM14.5 1C13.1193 1 12 2.1193 12 3.50002H14C14 3.22386 14.2239 3 14.5 3V1Z" fill="#0E0670"/>
<path d="M49.0005 47.9984C49.0005 36.6807 49.0005 19.8391 49.0005 15.6681C49.0005 15.0796 48.6565 14.5515 48.1207 14.3082L38.7709 10.0625M49.0005 47.9984C41.0032 40.13 29.2417 28.5583 25.6723 25.0464C25.0817 24.4653 24.1358 24.477 23.5548 25.0677L1 47.9984M49.0005 47.9984H33.2626H15.1641H1M1 47.9984V17.1336C1 16.5916 1.29242 16.0917 1.7649 15.8261L12.0165 10.0625" stroke="#0E0670" stroke-width="2" stroke-linecap="round"/>
<path d="M49.6071 16.2767C50.0447 15.9398 50.1263 15.3119 49.7893 14.8743C49.4524 14.4367 48.8245 14.3551 48.3869 14.692L49.6071 16.2767ZM48.3869 14.692L30.2884 28.6277L31.5085 30.2123L49.6071 16.2767L48.3869 14.692Z" fill="#0E0670"/>
<path d="M18.3953 29.7903C18.8377 30.1245 19.4658 30.0402 19.7983 29.602C20.1308 29.1637 20.0417 28.5375 19.5993 28.2033L18.3953 29.7903ZM1.18269 16.7857L18.3953 29.7903L19.5993 28.2033L2.38675 15.1987L1.18269 16.7857Z" fill="#0E0670"/>
</svg>
