<svg width="612" height="678" viewBox="0 0 612 678" fill="none" xmlns="http://www.w3.org/2000/svg">
<rect width="612" height="678" fill="white"/>
<path fill-rule="evenodd" clip-rule="evenodd" d="M375.3 305.437C345.534 331.471 316.706 345.465 307.104 337.959C312.196 340.751 318.763 333.77 325.42 319.901C337.575 314.669 354.825 309.579 375.3 305.437ZM342.608 267.806C343.561 263.801 344.482 259.675 345.365 255.443C356.622 201.446 357.291 150.528 346.858 141.715C336.426 132.902 318.842 169.531 307.585 223.528C296.327 277.526 295.658 328.444 306.091 337.257C306.323 337.453 306.559 337.627 306.799 337.779C306.939 338.022 307.102 338.263 307.287 338.501C315.665 349.286 366.567 350.707 420.981 341.675C475.395 332.643 512.715 316.577 504.337 305.792C495.96 295.006 445.057 293.585 390.643 302.617C385.359 303.495 380.236 304.438 375.3 305.437C378.558 302.587 381.827 299.594 385.083 296.468C418.979 263.936 438.661 229.441 429.044 219.422C419.428 209.402 384.154 227.652 350.259 260.184C347.62 262.717 345.067 265.262 342.608 267.806ZM306.72 337.638C306.844 337.749 306.972 337.856 307.104 337.959C307.002 337.903 306.9 337.843 306.799 337.779C306.772 337.732 306.745 337.685 306.72 337.638ZM306.72 337.638C306.574 337.508 306.433 337.372 306.298 337.231C297.43 327.991 313.476 297.939 342.608 267.806C337.478 289.35 331.413 307.416 325.42 319.901C311.129 326.053 303.882 332.401 306.72 337.638Z" fill="#0E0670"/>
<path fill-rule="evenodd" clip-rule="evenodd" d="M272.031 269.211C298.073 298.987 312.069 327.823 304.547 337.417C307.355 332.323 300.374 325.751 286.494 319.089C281.262 306.935 276.173 289.685 272.031 269.211ZM234.397 301.902C230.393 300.948 226.268 300.027 222.037 299.145C168.04 287.888 117.122 287.219 108.309 297.652C99.4957 308.084 136.125 325.667 190.122 336.925C244.12 348.183 295.038 348.851 303.851 338.419C304.046 338.188 304.219 337.953 304.37 337.716C304.614 337.574 304.856 337.411 305.095 337.225C315.881 328.848 317.302 277.945 308.269 223.531C299.237 169.117 283.171 131.797 272.386 140.175C261.6 148.552 260.179 199.455 269.212 253.869C270.089 259.153 271.032 264.276 272.031 269.211C269.182 265.953 266.188 262.685 263.063 259.428C230.531 225.533 196.036 205.851 186.016 215.468C175.997 225.084 194.247 260.358 226.779 294.253C229.311 296.891 231.854 299.443 234.397 301.902ZM304.232 337.793C304.341 337.671 304.446 337.546 304.547 337.417C304.491 337.517 304.432 337.617 304.37 337.716C304.324 337.742 304.278 337.768 304.232 337.793ZM304.232 337.793C304.102 337.938 303.967 338.079 303.826 338.214C294.586 347.082 264.532 331.035 234.397 301.902C255.942 307.031 274.009 313.097 286.494 319.089C292.646 333.382 298.995 340.63 304.232 337.793Z" fill="#0E0670"/>
<path d="M190.244 375.112V409.657H186.947C186.438 409.657 186.008 409.577 185.657 409.418C185.323 409.243 184.996 408.956 184.678 408.558L166.641 385.528C166.737 386.579 166.784 387.551 166.784 388.443V409.657H161.122V375.112H164.491C164.762 375.112 164.993 375.128 165.184 375.16C165.391 375.176 165.566 375.223 165.709 375.303C165.869 375.367 166.02 375.47 166.163 375.614C166.306 375.741 166.466 375.916 166.641 376.139L184.75 399.265C184.702 398.707 184.662 398.158 184.63 397.616C184.598 397.075 184.582 396.573 184.582 396.111V375.112H190.244Z" fill="#0E0670"/>
<path d="M204.388 409.657H197.937V375.112H204.388V409.657Z" fill="#0E0670"/>
<path d="M232.357 404.353V409.657H212.122V375.112H218.548V404.353H232.357Z" fill="#0E0670"/>
<path d="M268.676 392.384C268.676 394.917 268.254 397.266 267.41 399.432C266.582 401.582 265.403 403.445 263.874 405.022C262.345 406.599 260.506 407.833 258.356 408.725C256.206 409.601 253.817 410.039 251.189 410.039C248.577 410.039 246.196 409.601 244.046 408.725C241.896 407.833 240.048 406.599 238.503 405.022C236.974 403.445 235.788 401.582 234.944 399.432C234.099 397.266 233.677 394.917 233.677 392.384C233.677 389.852 234.099 387.511 234.944 385.361C235.788 383.195 236.974 381.323 238.503 379.747C240.048 378.17 241.896 376.944 244.046 376.068C246.196 375.176 248.577 374.73 251.189 374.73C252.941 374.73 254.589 374.937 256.134 375.351C257.679 375.749 259.096 376.322 260.386 377.071C261.677 377.804 262.831 378.703 263.85 379.77C264.886 380.822 265.762 382 266.478 383.306C267.195 384.612 267.737 386.03 268.103 387.559C268.485 389.088 268.676 390.696 268.676 392.384ZM262.107 392.384C262.107 390.489 261.852 388.793 261.342 387.296C260.832 385.783 260.108 384.501 259.168 383.45C258.228 382.398 257.082 381.594 255.728 381.037C254.39 380.479 252.877 380.201 251.189 380.201C249.501 380.201 247.98 380.479 246.626 381.037C245.288 381.594 244.141 382.398 243.186 383.45C242.246 384.501 241.521 385.783 241.012 387.296C240.502 388.793 240.247 390.489 240.247 392.384C240.247 394.28 240.502 395.984 241.012 397.497C241.521 398.994 242.246 400.268 243.186 401.319C244.141 402.355 245.288 403.151 246.626 403.708C247.98 404.266 249.501 404.544 251.189 404.544C252.877 404.544 254.39 404.266 255.728 403.708C257.082 403.151 258.228 402.355 259.168 401.319C260.108 400.268 260.832 398.994 261.342 397.497C261.852 395.984 262.107 394.28 262.107 392.384Z" fill="#0E0670"/>
<path d="M307.264 392.384C307.264 394.917 306.842 397.266 305.998 399.432C305.17 401.582 303.991 403.445 302.462 405.022C300.933 406.599 299.094 407.833 296.944 408.725C294.794 409.601 292.405 410.039 289.777 410.039C287.165 410.039 284.784 409.601 282.634 408.725C280.484 407.833 278.636 406.599 277.091 405.022C275.562 403.445 274.376 401.582 273.532 399.432C272.687 397.266 272.265 394.917 272.265 392.384C272.265 389.852 272.687 387.511 273.532 385.361C274.376 383.195 275.562 381.323 277.091 379.747C278.636 378.17 280.484 376.944 282.634 376.068C284.784 375.176 287.165 374.73 289.777 374.73C291.529 374.73 293.177 374.937 294.722 375.351C296.267 375.749 297.684 376.322 298.974 377.071C300.264 377.804 301.419 378.703 302.438 379.77C303.474 380.822 304.35 382 305.066 383.306C305.783 384.612 306.325 386.03 306.691 387.559C307.073 389.088 307.264 390.696 307.264 392.384ZM300.694 392.384C300.694 390.489 300.44 388.793 299.93 387.296C299.42 385.783 298.696 384.501 297.756 383.45C296.816 382.398 295.67 381.594 294.316 381.037C292.978 380.479 291.465 380.201 289.777 380.201C288.089 380.201 286.568 380.479 285.214 381.037C283.876 381.594 282.729 382.398 281.774 383.45C280.834 384.501 280.109 385.783 279.6 387.296C279.09 388.793 278.835 390.489 278.835 392.384C278.835 394.28 279.09 395.984 279.6 397.497C280.109 398.994 280.834 400.268 281.774 401.319C282.729 402.355 283.876 403.151 285.214 403.708C286.568 404.266 288.089 404.544 289.777 404.544C291.465 404.544 292.978 404.266 294.316 403.708C295.67 403.151 296.816 402.355 297.756 401.319C298.696 400.268 299.42 398.994 299.93 397.497C300.44 395.984 300.694 394.28 300.694 392.384Z" fill="#0E0670"/>
<path d="M321.471 395.954C321.36 396.13 321.244 396.258 321.122 396.335C321.001 396.401 320.846 396.435 320.658 396.435C320.459 396.435 320.243 396.379 320.011 396.269C319.79 396.158 319.53 396.036 319.231 395.904C318.933 395.76 318.59 395.633 318.203 395.522C317.827 395.412 317.379 395.356 316.859 395.356C316.051 395.356 315.416 395.528 314.951 395.871C314.498 396.213 314.271 396.661 314.271 397.214C314.271 397.579 314.387 397.889 314.619 398.143C314.863 398.387 315.178 398.602 315.565 398.79C315.963 398.978 316.411 399.15 316.909 399.305C317.406 399.448 317.91 399.609 318.418 399.786C318.938 399.963 319.447 400.167 319.945 400.4C320.442 400.621 320.885 400.908 321.272 401.262C321.67 401.605 321.985 402.02 322.217 402.507C322.461 402.993 322.582 403.579 322.582 404.265C322.582 405.084 322.433 405.841 322.134 406.538C321.847 407.224 321.416 407.821 320.84 408.33C320.265 408.827 319.552 409.22 318.7 409.508C317.86 409.784 316.887 409.922 315.781 409.922C315.194 409.922 314.619 409.867 314.055 409.756C313.502 409.657 312.966 409.513 312.446 409.325C311.937 409.137 311.462 408.916 311.019 408.661C310.588 408.407 310.206 408.131 309.874 407.832L310.82 406.273C310.942 406.085 311.086 405.941 311.251 405.841C311.417 405.742 311.627 405.692 311.882 405.692C312.136 405.692 312.374 405.764 312.595 405.908C312.827 406.051 313.093 406.206 313.392 406.372C313.69 406.538 314.039 406.693 314.437 406.837C314.846 406.98 315.36 407.052 315.98 407.052C316.466 407.052 316.881 406.997 317.224 406.886C317.578 406.765 317.865 406.61 318.087 406.422C318.319 406.234 318.485 406.018 318.584 405.775C318.695 405.52 318.75 405.261 318.75 404.995C318.75 404.597 318.628 404.271 318.385 404.016C318.153 403.762 317.838 403.541 317.439 403.353C317.052 403.165 316.604 402.999 316.096 402.855C315.598 402.7 315.084 402.534 314.553 402.357C314.033 402.18 313.519 401.976 313.01 401.743C312.512 401.5 312.064 401.196 311.666 400.831C311.279 400.466 310.964 400.018 310.721 399.487C310.488 398.956 310.372 398.315 310.372 397.563C310.372 396.866 310.51 396.202 310.787 395.572C311.063 394.942 311.467 394.394 311.998 393.93C312.54 393.454 313.209 393.078 314.005 392.801C314.813 392.514 315.742 392.37 316.792 392.37C317.965 392.37 319.032 392.564 319.994 392.951C320.957 393.338 321.758 393.847 322.4 394.477L321.471 395.954Z" fill="#0E0670"/>
<path d="M329.764 394.46C330.428 393.841 331.158 393.338 331.954 392.951C332.751 392.564 333.685 392.37 334.758 392.37C335.687 392.37 336.511 392.53 337.23 392.851C337.949 393.161 338.546 393.603 339.022 394.178C339.508 394.742 339.873 395.423 340.116 396.219C340.371 397.004 340.498 397.872 340.498 398.824V409.657H336.4V398.824C336.4 397.784 336.163 396.982 335.687 396.418C335.211 395.843 334.487 395.555 333.514 395.555C332.806 395.555 332.142 395.716 331.523 396.036C330.903 396.357 330.317 396.794 329.764 397.347V409.657H325.667V385.004H329.764V394.46Z" fill="#0E0670"/>
<path d="M353.387 402.39C352.204 402.446 351.208 402.551 350.401 402.706C349.593 402.849 348.946 403.037 348.46 403.27C347.973 403.502 347.625 403.773 347.415 404.083C347.204 404.392 347.099 404.73 347.099 405.095C347.099 405.814 347.309 406.328 347.73 406.637C348.161 406.947 348.72 407.102 349.405 407.102C350.246 407.102 350.97 406.953 351.579 406.654C352.198 406.344 352.801 405.88 353.387 405.261V402.39ZM343.997 395.008C345.955 393.216 348.31 392.32 351.064 392.32C352.06 392.32 352.95 392.486 353.735 392.818C354.521 393.139 355.184 393.592 355.726 394.178C356.268 394.754 356.677 395.445 356.954 396.252C357.241 397.06 357.385 397.944 357.385 398.907V409.657H355.527C355.14 409.657 354.841 409.602 354.631 409.491C354.421 409.369 354.255 409.132 354.133 408.778L353.769 407.55C353.337 407.937 352.917 408.28 352.508 408.579C352.098 408.866 351.673 409.109 351.23 409.309C350.788 409.508 350.312 409.657 349.803 409.756C349.306 409.867 348.753 409.922 348.144 409.922C347.426 409.922 346.762 409.828 346.154 409.64C345.545 409.441 345.02 409.148 344.578 408.761C344.135 408.374 343.792 407.893 343.549 407.318C343.306 406.743 343.184 406.073 343.184 405.31C343.184 404.879 343.256 404.453 343.4 404.033C343.544 403.602 343.776 403.192 344.097 402.805C344.428 402.418 344.854 402.053 345.374 401.71C345.894 401.367 346.53 401.069 347.282 400.814C348.045 400.56 348.93 400.355 349.936 400.201C350.943 400.035 352.093 399.935 353.387 399.902V398.907C353.387 397.767 353.144 396.927 352.657 396.385C352.17 395.832 351.468 395.555 350.55 395.555C349.886 395.555 349.333 395.633 348.891 395.788C348.46 395.942 348.078 396.119 347.746 396.319C347.415 396.507 347.11 396.678 346.834 396.833C346.568 396.988 346.27 397.065 345.938 397.065C345.65 397.065 345.407 396.993 345.208 396.849C345.009 396.695 344.849 396.518 344.727 396.319L343.997 395.008Z" fill="#0E0670"/>
<path d="M365.342 394.46C366.006 393.841 366.736 393.338 367.532 392.951C368.328 392.564 369.263 392.37 370.336 392.37C371.265 392.37 372.089 392.53 372.808 392.851C373.526 393.161 374.124 393.603 374.599 394.178C375.086 394.742 375.451 395.423 375.694 396.219C375.949 397.004 376.076 397.872 376.076 398.824V409.657H371.978V398.824C371.978 397.784 371.74 396.982 371.265 396.418C370.789 395.843 370.065 395.555 369.091 395.555C368.384 395.555 367.72 395.716 367.101 396.036C366.481 396.357 365.895 396.794 365.342 397.347V409.657H361.244V385.004H365.342V394.46Z" fill="#0E0670"/>
<path d="M390.358 395.954C390.248 396.13 390.132 396.258 390.01 396.335C389.888 396.401 389.733 396.435 389.545 396.435C389.346 396.435 389.131 396.379 388.898 396.269C388.677 396.158 388.417 396.036 388.119 395.904C387.82 395.76 387.477 395.633 387.09 395.522C386.714 395.412 386.266 395.356 385.746 395.356C384.939 395.356 384.303 395.528 383.838 395.871C383.385 396.213 383.158 396.661 383.158 397.214C383.158 397.579 383.274 397.889 383.507 398.143C383.75 398.387 384.065 398.602 384.452 398.79C384.85 398.978 385.298 399.15 385.796 399.305C386.294 399.448 386.797 399.609 387.306 399.786C387.826 399.963 388.334 400.167 388.832 400.4C389.33 400.621 389.772 400.908 390.159 401.262C390.557 401.605 390.873 402.02 391.105 402.507C391.348 402.993 391.47 403.579 391.47 404.265C391.47 405.084 391.321 405.841 391.022 406.538C390.734 407.224 390.303 407.821 389.728 408.33C389.153 408.827 388.439 409.22 387.588 409.508C386.747 409.784 385.774 409.922 384.668 409.922C384.082 409.922 383.507 409.867 382.943 409.756C382.39 409.657 381.853 409.513 381.333 409.325C380.825 409.137 380.349 408.916 379.907 408.661C379.475 408.407 379.094 408.131 378.762 407.832L379.707 406.273C379.829 406.085 379.973 405.941 380.139 405.841C380.305 405.742 380.515 405.692 380.769 405.692C381.024 405.692 381.261 405.764 381.483 405.908C381.715 406.051 381.98 406.206 382.279 406.372C382.578 406.538 382.926 406.693 383.324 406.837C383.733 406.98 384.248 407.052 384.867 407.052C385.354 407.052 385.768 406.997 386.111 406.886C386.465 406.765 386.753 406.61 386.974 406.422C387.206 406.234 387.372 406.018 387.472 405.775C387.582 405.52 387.638 405.261 387.638 404.995C387.638 404.597 387.516 404.271 387.273 404.016C387.04 403.762 386.725 403.541 386.327 403.353C385.94 403.165 385.492 402.999 384.983 402.855C384.485 402.7 383.971 402.534 383.44 402.357C382.92 402.18 382.406 401.976 381.897 401.743C381.4 401.5 380.952 401.196 380.554 400.831C380.166 400.466 379.851 400.018 379.608 399.487C379.376 398.956 379.26 398.315 379.26 397.563C379.26 396.866 379.398 396.202 379.674 395.572C379.951 394.942 380.354 394.394 380.885 393.93C381.427 393.454 382.096 393.078 382.893 392.801C383.7 392.514 384.629 392.37 385.68 392.37C386.852 392.37 387.92 392.564 388.882 392.951C389.844 393.338 390.646 393.847 391.287 394.477L390.358 395.954Z" fill="#0E0670"/>
<path d="M403.546 402.39C402.362 402.446 401.367 402.551 400.56 402.706C399.752 402.849 399.105 403.037 398.619 403.27C398.132 403.502 397.784 403.773 397.573 404.083C397.363 404.392 397.258 404.73 397.258 405.095C397.258 405.814 397.468 406.328 397.889 406.637C398.32 406.947 398.878 407.102 399.564 407.102C400.405 407.102 401.129 406.953 401.737 406.654C402.357 406.344 402.96 405.88 403.546 405.261V402.39ZM394.156 395.008C396.113 393.216 398.469 392.32 401.223 392.32C402.219 392.32 403.109 392.486 403.894 392.818C404.679 393.139 405.343 393.592 405.885 394.178C406.427 394.754 406.836 395.445 407.113 396.252C407.4 397.06 407.544 397.944 407.544 398.907V409.657H405.686C405.299 409.657 405 409.602 404.79 409.491C404.58 409.369 404.414 409.132 404.292 408.778L403.927 407.55C403.496 407.937 403.076 408.28 402.667 408.579C402.257 408.866 401.831 409.109 401.389 409.309C400.947 409.508 400.471 409.657 399.962 409.756C399.465 409.867 398.912 409.922 398.303 409.922C397.584 409.922 396.921 409.828 396.313 409.64C395.704 409.441 395.179 409.148 394.736 408.761C394.294 408.374 393.951 407.893 393.708 407.318C393.465 406.743 393.343 406.073 393.343 405.31C393.343 404.879 393.415 404.453 393.559 404.033C393.702 403.602 393.935 403.192 394.255 402.805C394.587 402.418 395.013 402.053 395.533 401.71C396.053 401.367 396.689 401.069 397.441 400.814C398.204 400.56 399.089 400.355 400.095 400.201C401.101 400.035 402.252 399.935 403.546 399.902V398.907C403.546 397.767 403.302 396.927 402.816 396.385C402.329 395.832 401.627 395.555 400.709 395.555C400.045 395.555 399.492 395.633 399.05 395.788C398.619 395.942 398.237 396.119 397.905 396.319C397.573 396.507 397.269 396.678 396.993 396.833C396.727 396.988 396.429 397.065 396.097 397.065C395.809 397.065 395.566 396.993 395.367 396.849C395.168 396.695 395.007 396.518 394.886 396.319L394.156 395.008Z" fill="#0E0670"/>
<path d="M426.36 392.636L419.608 409.657H415.892L409.14 392.636H412.524C412.834 392.636 413.088 392.707 413.287 392.851C413.497 392.995 413.636 393.177 413.702 393.399L416.987 402.49C417.164 403.021 417.319 403.541 417.451 404.049C417.584 404.558 417.7 405.067 417.8 405.576C417.91 405.067 418.032 404.558 418.165 404.049C418.297 403.541 418.458 403.021 418.646 402.49L421.997 393.399C422.074 393.177 422.213 392.995 422.412 392.851C422.611 392.707 422.849 392.636 423.125 392.636H426.36Z" fill="#0E0670"/>
<path d="M437.115 402.39C435.931 402.446 434.936 402.551 434.128 402.706C433.321 402.849 432.674 403.037 432.187 403.27C431.701 403.502 431.352 403.773 431.142 404.083C430.932 404.392 430.827 404.73 430.827 405.095C430.827 405.814 431.037 406.328 431.457 406.637C431.889 406.947 432.447 407.102 433.133 407.102C433.974 407.102 434.698 406.953 435.306 406.654C435.926 406.344 436.528 405.88 437.115 405.261V402.39ZM427.725 395.008C429.682 393.216 432.038 392.32 434.792 392.32C435.787 392.32 436.678 392.486 437.463 392.818C438.248 393.139 438.912 393.592 439.454 394.178C439.996 394.754 440.405 395.445 440.681 396.252C440.969 397.06 441.113 397.944 441.113 398.907V409.657H439.255C438.868 409.657 438.569 409.602 438.359 409.491C438.149 409.369 437.983 409.132 437.861 408.778L437.496 407.55C437.065 407.937 436.645 408.28 436.235 408.579C435.826 408.866 435.4 409.109 434.958 409.309C434.515 409.508 434.04 409.657 433.531 409.756C433.033 409.867 432.48 409.922 431.872 409.922C431.153 409.922 430.49 409.828 429.881 409.64C429.273 409.441 428.748 409.148 428.305 408.761C427.863 408.374 427.52 407.893 427.277 407.318C427.033 406.743 426.912 406.073 426.912 405.31C426.912 404.879 426.984 404.453 427.127 404.033C427.271 403.602 427.503 403.192 427.824 402.805C428.156 402.418 428.582 402.053 429.102 401.71C429.621 401.367 430.257 401.069 431.009 400.814C431.773 400.56 432.657 400.355 433.664 400.201C434.67 400.035 435.821 399.935 437.115 399.902V398.907C437.115 397.767 436.871 396.927 436.385 396.385C435.898 395.832 435.196 395.555 434.278 395.555C433.614 395.555 433.061 395.633 432.619 395.788C432.187 395.942 431.806 396.119 431.474 396.319C431.142 396.507 430.838 396.678 430.562 396.833C430.296 396.988 429.997 397.065 429.666 397.065C429.378 397.065 429.135 396.993 428.936 396.849C428.737 396.695 428.576 396.518 428.455 396.319L427.725 395.008Z" fill="#0E0670"/>
<path d="M448.838 395.589C449.368 394.571 449.999 393.775 450.729 393.2C451.459 392.613 452.321 392.32 453.317 392.32C454.102 392.32 454.732 392.492 455.208 392.835L454.943 395.904C454.887 396.103 454.804 396.247 454.694 396.335C454.594 396.413 454.456 396.451 454.279 396.451C454.113 396.451 453.864 396.424 453.532 396.368C453.212 396.313 452.897 396.285 452.587 396.285C452.133 396.285 451.73 396.352 451.376 396.484C451.022 396.617 450.701 396.811 450.414 397.065C450.137 397.308 449.888 397.607 449.667 397.961C449.457 398.315 449.258 398.719 449.07 399.172V409.657H444.972V392.636H447.378C447.798 392.636 448.091 392.713 448.257 392.868C448.423 393.012 448.533 393.277 448.589 393.664L448.838 395.589Z" fill="#0E0670"/>
</svg>
