<svg width="612" height="678" viewBox="0 0 612 678" fill="none" xmlns="http://www.w3.org/2000/svg">
<rect width="612" height="678" fill="white"/>
<mask id="path-1-inside-1_1919_371" fill="white">
<path fill-rule="evenodd" clip-rule="evenodd" d="M374.499 277.78C344.733 303.814 315.905 317.808 306.303 310.302C311.395 313.094 317.962 306.113 324.619 292.244C336.774 287.012 354.024 281.922 374.499 277.78ZM341.807 240.149C342.76 236.144 343.681 232.018 344.564 227.786C355.821 173.789 356.49 122.871 346.057 114.058C335.625 105.245 318.041 141.874 306.784 195.872C295.526 249.869 294.858 300.787 305.29 309.6C305.522 309.796 305.758 309.97 305.998 310.122C306.138 310.365 306.301 310.606 306.486 310.844C314.864 321.629 365.766 323.05 420.18 314.018C474.594 304.986 511.914 288.92 503.537 278.135C495.159 267.349 444.256 265.928 389.842 274.961C384.558 275.838 379.435 276.781 374.499 277.78C377.757 274.93 381.026 271.937 384.283 268.812C418.178 236.279 437.86 201.784 428.243 191.765C418.627 181.745 383.353 199.995 349.458 232.527C346.819 235.06 344.266 237.605 341.807 240.149ZM305.919 309.981C306.043 310.092 306.171 310.199 306.303 310.302C306.201 310.246 306.099 310.186 305.998 310.122C305.971 310.075 305.944 310.028 305.919 309.981ZM305.919 309.981C305.773 309.851 305.632 309.715 305.497 309.574C296.629 300.334 312.675 270.282 341.807 240.149C336.677 261.693 330.612 279.76 324.619 292.244C310.328 298.396 303.081 304.744 305.919 309.981Z"/>
</mask>
<path d="M344.564 227.786L348.27 228.559L348.27 228.559L344.564 227.786ZM346.057 114.058L348.5 111.166L348.5 111.166L346.057 114.058ZM306.784 195.872L310.49 196.644L310.49 196.644L306.784 195.872ZM305.29 309.6L302.847 312.492L302.847 312.492L305.29 309.6ZM306.486 310.844L309.476 308.521L309.476 308.521L306.486 310.844ZM420.18 314.018L419.56 310.283L419.56 310.283L420.18 314.018ZM503.537 278.135L506.526 275.812L506.526 275.812L503.537 278.135ZM389.842 274.961L390.462 278.695L390.462 278.695L389.842 274.961ZM303.971 313.285C307.565 316.094 312.43 316.52 317.374 315.794C322.41 315.055 328.227 313.029 334.476 310.032C347.003 304.027 361.937 293.796 376.992 280.629L372.007 274.93C357.295 287.797 342.932 297.581 331.203 303.205C325.324 306.023 320.274 307.715 316.274 308.302C312.182 308.903 309.842 308.263 308.635 307.319L303.971 313.285ZM304.483 313.622C306.763 314.872 309.232 314.981 311.574 314.2C313.782 313.464 315.779 311.981 317.559 310.19C321.116 306.611 324.641 300.947 328.032 293.882L321.206 290.606C317.94 297.41 314.853 302.172 312.189 304.852C310.859 306.19 309.843 306.796 309.18 307.017C308.65 307.194 308.389 307.128 308.123 306.982L304.483 313.622ZM326.116 295.722C337.948 290.628 354.924 285.603 375.25 281.49L373.749 274.069C353.124 278.242 335.6 283.396 323.122 288.767L326.116 295.722ZM345.49 241.026C346.452 236.985 347.38 232.825 348.27 228.559L340.857 227.014C339.982 231.212 339.069 235.302 338.124 239.272L345.49 241.026ZM348.27 228.559C353.939 201.368 356.956 174.894 357.23 154.028C357.367 143.607 356.822 134.467 355.535 127.285C354.892 123.695 354.046 120.494 352.954 117.826C351.88 115.201 350.457 112.819 348.5 111.166L343.614 116.95C344.266 117.5 345.104 118.637 345.946 120.694C346.771 122.709 347.496 125.354 348.082 128.62C349.252 135.152 349.792 143.768 349.659 153.928C349.392 174.224 346.446 200.208 340.857 227.014L348.27 228.559ZM348.5 111.166C346.409 109.399 343.876 108.626 341.181 109.099C338.683 109.538 336.456 110.975 334.535 112.748C330.704 116.284 326.927 122.252 323.317 129.772C316.029 144.954 308.741 167.934 303.078 195.099L310.49 196.644C316.084 169.811 323.216 147.478 330.143 133.049C333.64 125.764 336.918 120.853 339.671 118.312C341.041 117.047 341.986 116.646 342.491 116.557C342.799 116.503 343.097 116.513 343.614 116.95L348.5 111.166ZM303.078 195.099C297.409 222.29 294.392 248.764 294.118 269.63C293.981 280.051 294.526 289.191 295.813 296.373C296.456 299.963 297.302 303.164 298.393 305.832C299.468 308.457 300.89 310.839 302.847 312.492L307.733 306.708C307.082 306.158 306.243 305.021 305.401 302.964C304.577 300.949 303.851 298.304 303.266 295.038C302.095 288.506 301.555 279.89 301.689 269.73C301.955 249.434 304.901 223.45 310.49 196.644L303.078 195.099ZM302.847 312.492C303.203 312.793 303.578 313.071 303.972 313.32L308.023 306.923C307.939 306.87 307.842 306.8 307.733 306.708L302.847 312.492ZM309.476 308.521C309.39 308.41 309.324 308.311 309.274 308.225L302.721 312.018C302.953 312.419 303.213 312.801 303.496 313.166L309.476 308.521ZM419.56 310.283C392.548 314.767 366.465 316.645 346.175 316.078C336.018 315.795 327.431 314.901 320.953 313.464C317.714 312.745 315.101 311.912 313.121 311.005C311.1 310.08 309.999 309.195 309.476 308.521L303.496 313.166C305.067 315.189 307.39 316.708 309.968 317.889C312.589 319.09 315.752 320.066 319.313 320.856C326.436 322.437 335.547 323.356 345.964 323.647C366.823 324.229 393.399 322.301 420.8 317.753L419.56 310.283ZM500.547 280.457C500.962 280.992 500.96 281.29 500.893 281.596C500.784 282.096 500.344 283.024 499.024 284.342C496.372 286.987 491.331 290.061 483.908 293.256C469.207 299.585 446.6 305.795 419.56 310.283L420.8 317.753C448.174 313.209 471.434 306.87 486.902 300.211C494.564 296.913 500.682 293.383 504.372 289.701C506.223 287.855 507.75 285.688 508.291 283.21C508.874 280.537 508.206 277.974 506.526 275.812L500.547 280.457ZM390.462 278.695C417.475 274.211 443.558 272.334 463.848 272.9C474.005 273.184 482.591 274.077 489.069 275.515C492.309 276.233 494.922 277.067 496.901 277.973C498.922 278.899 500.023 279.784 500.547 280.457L506.526 275.812C504.955 273.79 502.633 272.27 500.054 271.089C497.434 269.889 494.27 268.912 490.71 268.122C483.587 266.542 474.476 265.622 464.059 265.332C443.199 264.749 416.624 266.677 389.223 271.226L390.462 278.695ZM375.25 281.49C380.141 280.501 385.221 279.565 390.462 278.695L389.223 271.226C383.896 272.11 378.729 273.061 373.749 274.069L375.25 281.49ZM376.992 280.629C380.294 277.741 383.606 274.708 386.904 271.543L381.661 266.08C378.446 269.165 375.22 272.119 372.007 274.93L376.992 280.629ZM386.904 271.543C404.038 255.098 417.687 238.06 425.868 223.722C429.946 216.575 432.778 209.906 433.912 204.193C435.02 198.609 434.668 192.991 430.975 189.143L425.512 194.386C426.627 195.548 427.421 198 426.485 202.718C425.574 207.308 423.169 213.174 419.292 219.97C411.562 233.517 398.422 249.993 381.661 266.08L386.904 271.543ZM430.975 189.143C427.282 185.296 421.683 184.713 416.059 185.591C410.304 186.49 403.524 189.046 396.216 192.827C381.554 200.412 363.97 213.351 346.836 229.796L352.079 235.259C368.841 219.171 385.842 206.719 399.695 199.552C406.644 195.956 412.604 193.795 417.227 193.073C421.98 192.33 424.397 193.224 425.512 194.386L430.975 189.143ZM346.836 229.796C344.163 232.361 341.577 234.939 339.085 237.517L344.529 242.78C346.955 240.27 349.474 237.759 352.079 235.259L346.836 229.796ZM303.398 312.805C303.584 312.971 303.775 313.131 303.971 313.285L308.635 307.319C308.568 307.267 308.503 307.213 308.44 307.157L303.398 312.805ZM303.972 313.32C304.139 313.426 304.31 313.527 304.483 313.622L308.123 306.982C308.092 306.965 308.058 306.945 308.023 306.923L303.972 313.32ZM309.274 308.225C309.265 308.21 309.256 308.194 309.247 308.177L302.59 311.785C302.632 311.862 302.676 311.94 302.721 312.018L309.274 308.225ZM302.765 312.196C302.969 312.407 303.18 312.611 303.398 312.805L308.44 307.157C308.367 307.091 308.296 307.023 308.228 306.952L302.765 312.196ZM339.085 237.517C324.356 252.753 312.813 268.087 306.052 280.933C302.682 287.336 300.394 293.319 299.591 298.485C298.801 303.574 299.357 308.644 302.765 312.196L308.228 306.952C307.203 305.884 306.439 303.733 307.074 299.647C307.696 295.637 309.578 290.492 312.752 284.46C319.08 272.437 330.126 257.678 344.529 242.78L339.085 237.517ZM328.032 293.882C334.182 281.069 340.324 262.721 345.49 241.026L338.124 239.272C333.03 260.665 327.041 278.45 321.206 290.606L328.032 293.882ZM309.248 308.177C309.081 307.869 309.033 307.61 309.204 307.125C309.427 306.495 310.04 305.513 311.421 304.231C314.189 301.662 319.101 298.741 326.116 295.722L323.122 288.767C315.846 291.899 309.989 295.229 306.27 298.681C304.408 300.41 302.849 302.381 302.064 304.606C301.227 306.977 301.338 309.474 302.59 311.785L309.248 308.177Z" fill="#0E0670" mask="url(#path-1-inside-1_1919_371)"/>
<mask id="path-3-inside-2_1919_371" fill="white">
<path fill-rule="evenodd" clip-rule="evenodd" d="M271.23 241.554C297.272 271.33 311.268 300.166 303.746 309.76C306.554 304.666 299.573 298.095 285.693 291.432C280.461 279.278 275.372 262.028 271.23 241.554ZM233.597 274.245C229.592 273.291 225.468 272.37 221.236 271.488C167.239 260.231 116.321 259.562 107.508 269.995C98.6948 280.427 135.324 298.011 189.322 309.268C243.319 320.526 294.237 321.194 303.05 310.762C303.245 310.531 303.418 310.297 303.569 310.059C303.813 309.918 304.055 309.754 304.294 309.568C315.08 301.191 316.501 250.288 307.468 195.874C298.436 141.46 282.37 104.14 271.585 112.518C260.8 120.896 259.378 171.798 268.411 226.212C269.288 231.496 270.231 236.619 271.23 241.554C268.381 238.297 265.387 235.028 262.262 231.772C229.73 197.876 195.235 178.194 185.215 187.811C175.196 197.427 193.446 232.701 225.978 266.596C228.51 269.234 231.053 271.786 233.597 274.245ZM303.431 310.136C303.54 310.014 303.645 309.889 303.746 309.76C303.691 309.86 303.632 309.96 303.569 310.059C303.523 310.085 303.477 310.111 303.431 310.136ZM303.431 310.136C303.301 310.281 303.166 310.422 303.025 310.557C293.785 319.425 263.731 303.378 233.597 274.245C255.141 279.374 273.208 285.44 285.693 291.432C291.845 305.726 298.194 312.974 303.431 310.136Z"/>
</mask>
<path d="M221.236 271.488L222.009 267.782L222.009 267.782L221.236 271.488ZM107.508 269.995L104.616 267.552L104.616 267.552L107.508 269.995ZM189.322 309.268L190.094 305.562L190.094 305.562L189.322 309.268ZM303.05 310.762L305.942 313.205L305.942 313.205L303.05 310.762ZM304.294 309.568L306.616 312.558L306.617 312.558L304.294 309.568ZM271.585 112.518L269.263 109.528L269.263 109.528L271.585 112.518ZM268.411 226.212L272.146 225.592L272.146 225.592L268.411 226.212ZM306.725 312.096C309.541 308.504 309.97 303.639 309.247 298.694C308.51 293.658 306.484 287.84 303.489 281.589C297.483 269.06 287.251 254.121 274.079 239.062L268.38 244.047C281.252 258.763 291.038 273.13 296.66 284.862C299.479 290.741 301.169 295.792 301.755 299.791C302.353 303.882 301.711 306.219 300.766 307.424L306.725 312.096ZM307.061 311.588C308.318 309.309 308.433 306.838 307.655 304.492C306.922 302.281 305.439 300.282 303.647 298.5C300.068 294.94 294.401 291.413 287.331 288.019L284.055 294.846C290.864 298.114 295.628 301.203 298.308 303.869C299.645 305.199 300.249 306.214 300.468 306.876C300.643 307.404 300.578 307.664 300.43 307.932L307.061 311.588ZM289.171 289.936C284.078 278.104 279.052 261.128 274.941 240.803L267.519 242.305C271.691 262.928 276.845 280.452 282.216 292.929L289.171 289.936ZM234.473 270.562C230.434 269.6 226.274 268.671 222.009 267.782L220.464 275.194C224.661 276.07 228.751 276.983 232.72 277.928L234.473 270.562ZM222.009 267.782C194.817 262.113 168.344 259.096 147.478 258.822C137.057 258.685 127.916 259.23 120.735 260.517C117.145 261.16 113.944 262.006 111.276 263.098C108.651 264.172 106.269 265.595 104.616 267.552L110.4 272.438C110.95 271.786 112.087 270.948 114.144 270.106C116.159 269.281 118.804 268.556 122.07 267.97C128.602 266.8 137.218 266.26 147.378 266.393C167.674 266.66 193.658 269.606 220.464 275.194L222.009 267.782ZM104.616 267.552C102.849 269.643 102.076 272.176 102.549 274.871C102.988 277.368 104.424 279.596 106.198 281.517C109.734 285.348 115.702 289.125 123.222 292.735C138.404 300.023 161.384 307.311 188.549 312.974L190.094 305.562C163.261 299.968 140.928 292.836 126.499 285.909C119.214 282.412 114.303 279.134 111.762 276.381C110.497 275.011 110.096 274.065 110.007 273.561C109.953 273.253 109.963 272.955 110.4 272.438L104.616 267.552ZM188.549 312.974C215.74 318.643 242.214 321.66 263.08 321.934C273.501 322.071 282.641 321.526 289.823 320.239C293.413 319.596 296.614 318.75 299.282 317.658C301.907 316.584 304.289 315.161 305.942 313.205L300.158 308.319C299.608 308.97 298.471 309.809 296.414 310.651C294.399 311.475 291.754 312.201 288.488 312.786C281.956 313.956 273.34 314.497 263.18 314.363C242.884 314.097 216.9 311.15 190.094 305.562L188.549 312.974ZM305.942 313.205C306.241 312.851 306.517 312.479 306.765 312.087L300.372 308.031C300.319 308.114 300.249 308.211 300.158 308.319L305.942 313.205ZM301.972 306.578C301.86 306.665 301.76 306.731 301.674 306.781L305.463 313.337C305.866 313.104 306.25 312.843 306.616 312.558L301.972 306.578ZM303.734 196.494C308.218 223.507 310.095 249.59 309.529 269.879C309.245 280.037 308.352 288.623 306.914 295.101C306.196 298.341 305.362 300.954 304.456 302.933C303.53 304.954 302.645 306.055 301.972 306.578L306.617 312.558C308.639 310.987 310.159 308.665 311.34 306.086C312.54 303.466 313.516 300.302 314.306 296.741C315.887 289.619 316.807 280.508 317.097 270.091C317.68 249.231 315.752 222.656 311.203 195.254L303.734 196.494ZM273.907 115.508C274.442 115.093 274.74 115.095 275.046 115.162C275.546 115.271 276.475 115.71 277.792 117.03C280.438 119.682 283.511 124.724 286.707 132.146C293.035 146.848 299.245 169.454 303.734 196.494L311.203 195.254C306.659 167.88 300.32 144.62 293.662 129.152C290.363 121.49 286.834 115.372 283.152 111.682C281.305 109.831 279.138 108.305 276.66 107.764C273.988 107.181 271.425 107.849 269.263 109.528L273.907 115.508ZM272.146 225.592C267.662 198.579 265.784 172.497 266.351 152.207C266.634 142.05 267.528 133.463 268.965 126.985C269.684 123.745 270.517 121.133 271.424 119.153C272.349 117.132 273.234 116.031 273.907 115.508L269.263 109.528C267.24 111.099 265.721 113.422 264.54 116C263.339 118.621 262.363 121.784 261.573 125.345C259.992 132.468 259.073 141.578 258.782 151.996C258.199 172.855 260.128 199.431 264.676 226.832L272.146 225.592ZM274.941 240.803C273.951 235.913 273.016 230.834 272.146 225.592L264.676 226.832C265.56 232.158 266.512 237.325 267.519 242.305L274.941 240.803ZM274.079 239.062C271.192 235.76 268.159 232.448 264.994 229.15L259.531 234.393C262.616 237.607 265.57 240.833 268.38 244.047L274.079 239.062ZM264.994 229.15C248.549 212.016 231.511 198.367 217.173 190.186C210.026 186.108 203.356 183.277 197.643 182.143C192.06 181.034 186.442 181.386 182.594 185.079L187.837 190.542C188.999 189.427 191.45 188.633 196.169 189.569C200.759 190.48 206.624 192.885 213.42 196.762C226.968 204.492 243.444 217.632 259.531 234.393L264.994 229.15ZM182.594 185.079C178.746 188.772 178.164 194.371 179.042 199.995C179.941 205.75 182.496 212.531 186.277 219.839C193.863 234.5 206.802 252.084 223.247 269.218L228.709 263.975C212.622 247.213 200.17 230.212 193.002 216.359C189.407 209.41 187.245 203.45 186.523 198.827C185.781 194.074 186.675 191.657 187.837 190.542L182.594 185.079ZM223.247 269.218C225.811 271.89 228.388 274.475 230.965 276.967L236.228 271.523C233.719 269.097 231.209 266.579 228.709 263.975L223.247 269.218ZM306.256 312.657C306.418 312.475 306.575 312.288 306.725 312.096L300.766 307.424C300.715 307.49 300.662 307.553 300.607 307.614L306.256 312.657ZM306.765 312.087C306.869 311.924 306.968 311.757 307.061 311.588L300.43 307.932C300.413 307.963 300.394 307.996 300.372 308.031L306.765 312.087ZM301.675 306.781C301.658 306.79 301.643 306.799 301.628 306.807L305.235 313.464C305.312 313.423 305.388 313.38 305.463 313.337L301.675 306.781ZM305.646 313.289C305.858 313.086 306.061 312.875 306.256 312.657L300.607 307.614C300.542 307.687 300.474 307.758 300.403 307.826L305.646 313.289ZM230.965 276.967C246.201 291.696 261.536 303.24 274.383 310.002C280.786 313.372 286.769 315.66 291.935 316.463C297.024 317.253 302.094 316.698 305.646 313.289L300.403 307.826C299.335 308.851 297.184 309.615 293.097 308.981C289.087 308.358 283.941 306.476 277.909 303.301C265.886 296.973 251.126 285.926 236.228 271.523L230.965 276.967ZM287.331 288.019C274.518 281.869 256.169 275.727 234.473 270.562L232.72 277.928C254.113 283.021 271.899 289.011 284.055 294.846L287.331 288.019ZM301.628 306.807C301.32 306.974 301.06 307.021 300.575 306.85C299.945 306.628 298.963 306.014 297.68 304.633C295.111 301.865 292.19 296.951 289.171 289.936L282.216 292.929C285.348 300.207 288.678 306.064 292.131 309.784C293.859 311.646 295.831 313.206 298.056 313.991C300.427 314.827 302.925 314.716 305.235 313.464L301.628 306.807Z" fill="#0E0670" mask="url(#path-3-inside-2_1919_371)"/>
<path d="M189.443 347.455V382H186.147C185.637 382 185.207 381.92 184.856 381.761C184.522 381.586 184.196 381.299 183.877 380.901L165.84 357.871C165.936 358.922 165.983 359.894 165.983 360.786V382H160.321V347.455H163.69C163.961 347.455 164.192 347.471 164.383 347.503C164.59 347.519 164.765 347.567 164.908 347.646C165.068 347.71 165.219 347.813 165.362 347.957C165.506 348.084 165.665 348.259 165.84 348.482L183.949 371.608C183.901 371.05 183.861 370.501 183.829 369.959C183.797 369.418 183.781 368.916 183.781 368.454V347.455H189.443ZM203.587 382H197.136V347.455H203.587V382ZM231.556 376.696V382H211.321V347.455H217.747V376.696H231.556ZM267.875 364.728C267.875 367.26 267.453 369.609 266.609 371.775C265.781 373.925 264.602 375.789 263.073 377.365C261.545 378.942 259.705 380.176 257.555 381.068C255.405 381.944 253.016 382.382 250.388 382.382C247.776 382.382 245.395 381.944 243.245 381.068C241.095 380.176 239.247 378.942 237.702 377.365C236.173 375.789 234.987 373.925 234.143 371.775C233.299 369.609 232.877 367.26 232.877 364.728C232.877 362.195 233.299 359.854 234.143 357.704C234.987 355.538 236.173 353.666 237.702 352.09C239.247 350.513 241.095 349.287 243.245 348.411C245.395 347.519 247.776 347.073 250.388 347.073C252.14 347.073 253.788 347.28 255.333 347.694C256.878 348.092 258.295 348.665 259.586 349.414C260.876 350.147 262.03 351.047 263.05 352.114C264.085 353.165 264.961 354.343 265.677 355.649C266.394 356.955 266.936 358.373 267.302 359.902C267.684 361.431 267.875 363.039 267.875 364.728ZM261.306 364.728C261.306 362.832 261.051 361.136 260.541 359.639C260.031 358.126 259.307 356.844 258.367 355.793C257.427 354.742 256.281 353.937 254.927 353.38C253.589 352.822 252.076 352.544 250.388 352.544C248.7 352.544 247.179 352.822 245.825 353.38C244.487 353.937 243.34 354.742 242.385 355.793C241.445 356.844 240.72 358.126 240.211 359.639C239.701 361.136 239.446 362.832 239.446 364.728C239.446 366.623 239.701 368.327 240.211 369.84C240.72 371.337 241.445 372.611 242.385 373.662C243.34 374.698 244.487 375.494 245.825 376.051C247.179 376.609 248.7 376.888 250.388 376.888C252.076 376.888 253.589 376.609 254.927 376.051C256.281 375.494 257.427 374.698 258.367 373.662C259.307 372.611 260.031 371.337 260.541 369.84C261.051 368.327 261.306 366.623 261.306 364.728ZM306.463 364.728C306.463 367.26 306.041 369.609 305.197 371.775C304.369 373.925 303.19 375.789 301.661 377.365C300.132 378.942 298.293 380.176 296.143 381.068C293.993 381.944 291.604 382.382 288.976 382.382C286.364 382.382 283.983 381.944 281.833 381.068C279.683 380.176 277.835 378.942 276.29 377.365C274.761 375.789 273.575 373.925 272.731 371.775C271.887 369.609 271.464 367.26 271.464 364.728C271.464 362.195 271.887 359.854 272.731 357.704C273.575 355.538 274.761 353.666 276.29 352.09C277.835 350.513 279.683 349.287 281.833 348.411C283.983 347.519 286.364 347.073 288.976 347.073C290.728 347.073 292.376 347.28 293.921 347.694C295.466 348.092 296.883 348.665 298.173 349.414C299.464 350.147 300.618 351.047 301.638 352.114C302.673 353.165 303.549 354.343 304.265 355.649C304.982 356.955 305.524 358.373 305.89 359.902C306.272 361.431 306.463 363.039 306.463 364.728ZM299.894 364.728C299.894 362.832 299.639 361.136 299.129 359.639C298.619 358.126 297.895 356.844 296.955 355.793C296.015 354.742 294.869 353.937 293.515 353.38C292.177 352.822 290.664 352.544 288.976 352.544C287.288 352.544 285.767 352.822 284.413 353.38C283.075 353.937 281.928 354.742 280.973 355.793C280.033 356.844 279.308 358.126 278.799 359.639C278.289 361.136 278.034 362.832 278.034 364.728C278.034 366.623 278.289 368.327 278.799 369.84C279.308 371.337 280.033 372.611 280.973 373.662C281.928 374.698 283.075 375.494 284.413 376.051C285.767 376.609 287.288 376.888 288.976 376.888C290.664 376.888 292.177 376.609 293.515 376.051C294.869 375.494 296.015 374.698 296.955 373.662C297.895 372.611 298.619 371.337 299.129 369.84C299.639 368.327 299.894 366.623 299.894 364.728ZM320.67 368.297C320.559 368.474 320.443 368.601 320.322 368.678C320.2 368.745 320.045 368.778 319.857 368.778C319.658 368.778 319.442 368.722 319.21 368.612C318.989 368.501 318.729 368.38 318.43 368.247C318.132 368.103 317.789 367.976 317.402 367.865C317.026 367.755 316.578 367.699 316.058 367.699C315.251 367.699 314.615 367.871 314.15 368.214C313.697 368.557 313.47 369.004 313.47 369.557C313.47 369.922 313.586 370.232 313.818 370.487C314.062 370.73 314.377 370.946 314.764 371.134C315.162 371.322 315.61 371.493 316.108 371.648C316.605 371.792 317.109 371.952 317.617 372.129C318.137 372.306 318.646 372.511 319.144 372.743C319.641 372.964 320.084 373.252 320.471 373.605C320.869 373.948 321.184 374.363 321.417 374.85C321.66 375.336 321.782 375.923 321.782 376.608C321.782 377.427 321.632 378.184 321.334 378.881C321.046 379.567 320.615 380.164 320.04 380.673C319.464 381.17 318.751 381.563 317.899 381.851C317.059 382.127 316.086 382.265 314.98 382.265C314.393 382.265 313.818 382.21 313.254 382.1C312.701 382 312.165 381.856 311.645 381.668C311.136 381.48 310.661 381.259 310.218 381.005C309.787 380.75 309.405 380.474 309.074 380.175L310.019 378.616C310.141 378.428 310.285 378.284 310.451 378.184C310.616 378.085 310.827 378.035 311.081 378.035C311.335 378.035 311.573 378.107 311.794 378.251C312.027 378.394 312.292 378.549 312.591 378.715C312.889 378.881 313.238 379.036 313.636 379.18C314.045 379.323 314.559 379.395 315.179 379.395C315.665 379.395 316.08 379.34 316.423 379.229C316.777 379.108 317.064 378.953 317.286 378.765C317.518 378.577 317.684 378.361 317.783 378.118C317.894 377.864 317.949 377.604 317.949 377.338C317.949 376.94 317.828 376.614 317.584 376.359C317.352 376.105 317.037 375.884 316.639 375.696C316.252 375.508 315.804 375.342 315.295 375.198C314.797 375.043 314.283 374.877 313.752 374.7C313.232 374.523 312.718 374.319 312.209 374.087C311.711 373.843 311.263 373.539 310.865 373.174C310.478 372.809 310.163 372.361 309.92 371.83C309.687 371.299 309.571 370.658 309.571 369.906C309.571 369.209 309.71 368.546 309.986 367.915C310.263 367.285 310.666 366.737 311.197 366.273C311.739 365.797 312.408 365.421 313.204 365.145C314.012 364.857 314.941 364.713 315.992 364.713C317.164 364.713 318.231 364.907 319.193 365.294C320.156 365.681 320.958 366.19 321.599 366.82L320.67 368.297ZM328.963 366.804C329.627 366.184 330.357 365.681 331.153 365.294C331.95 364.907 332.884 364.713 333.957 364.713C334.886 364.713 335.71 364.874 336.429 365.194C337.148 365.504 337.745 365.946 338.221 366.522C338.707 367.086 339.072 367.766 339.316 368.562C339.57 369.347 339.697 370.216 339.697 371.167V382H335.599V371.167C335.599 370.127 335.362 369.325 334.886 368.761C334.41 368.186 333.686 367.898 332.713 367.898C332.005 367.898 331.341 368.059 330.722 368.38C330.103 368.7 329.516 369.137 328.963 369.69V382H324.866V357.347H328.963V366.804ZM352.586 374.734C351.403 374.789 350.407 374.894 349.6 375.049C348.792 375.193 348.145 375.381 347.659 375.613C347.172 375.845 346.824 376.116 346.614 376.426C346.403 376.735 346.298 377.073 346.298 377.438C346.298 378.157 346.509 378.671 346.929 378.981C347.36 379.29 347.919 379.445 348.604 379.445C349.445 379.445 350.169 379.296 350.778 378.997C351.397 378.688 352 378.223 352.586 377.604V374.734ZM343.196 367.351C345.154 365.559 347.509 364.663 350.263 364.663C351.259 364.663 352.149 364.829 352.934 365.161C353.72 365.482 354.383 365.935 354.925 366.522C355.467 367.097 355.876 367.788 356.153 368.595C356.44 369.403 356.584 370.287 356.584 371.25V382H354.726C354.339 382 354.04 381.945 353.83 381.834C353.62 381.712 353.454 381.475 353.333 381.121L352.968 379.893C352.536 380.28 352.116 380.623 351.707 380.922C351.298 381.209 350.872 381.453 350.429 381.652C349.987 381.851 349.511 382 349.003 382.1C348.505 382.21 347.952 382.265 347.344 382.265C346.625 382.265 345.961 382.171 345.353 381.983C344.744 381.784 344.219 381.491 343.777 381.104C343.334 380.717 342.991 380.236 342.748 379.661C342.505 379.086 342.383 378.417 342.383 377.653C342.383 377.222 342.455 376.796 342.599 376.376C342.743 375.945 342.975 375.535 343.296 375.148C343.627 374.761 344.053 374.396 344.573 374.053C345.093 373.711 345.729 373.412 346.481 373.158C347.244 372.903 348.129 372.699 349.135 372.544C350.142 372.378 351.292 372.278 352.586 372.245V371.25C352.586 370.11 352.343 369.27 351.856 368.728C351.369 368.175 350.667 367.898 349.749 367.898C349.086 367.898 348.533 367.976 348.09 368.131C347.659 368.286 347.277 368.463 346.945 368.662C346.614 368.85 346.309 369.021 346.033 369.176C345.768 369.331 345.469 369.408 345.137 369.408C344.85 369.408 344.606 369.336 344.407 369.193C344.208 369.038 344.048 368.861 343.926 368.662L343.196 367.351ZM364.541 366.804C365.205 366.184 365.935 365.681 366.731 365.294C367.527 364.907 368.462 364.713 369.535 364.713C370.464 364.713 371.288 364.874 372.007 365.194C372.726 365.504 373.323 365.946 373.798 366.522C374.285 367.086 374.65 367.766 374.893 368.562C375.148 369.347 375.275 370.216 375.275 371.167V382H371.177V371.167C371.177 370.127 370.939 369.325 370.464 368.761C369.988 368.186 369.264 367.898 368.291 367.898C367.583 367.898 366.919 368.059 366.3 368.38C365.68 368.7 365.094 369.137 364.541 369.69V382H360.443V357.347H364.541V366.804ZM389.557 368.297C389.447 368.474 389.331 368.601 389.209 368.678C389.087 368.745 388.932 368.778 388.744 368.778C388.545 368.778 388.33 368.722 388.097 368.612C387.876 368.501 387.616 368.38 387.318 368.247C387.019 368.103 386.676 367.976 386.289 367.865C385.913 367.755 385.465 367.699 384.945 367.699C384.138 367.699 383.502 367.871 383.037 368.214C382.584 368.557 382.357 369.004 382.357 369.557C382.357 369.922 382.473 370.232 382.706 370.487C382.949 370.73 383.264 370.946 383.651 371.134C384.049 371.322 384.497 371.493 384.995 371.648C385.493 371.792 385.996 371.952 386.505 372.129C387.025 372.306 387.533 372.511 388.031 372.743C388.529 372.964 388.971 373.252 389.358 373.605C389.756 373.948 390.072 374.363 390.304 374.85C390.547 375.336 390.669 375.923 390.669 376.608C390.669 377.427 390.52 378.184 390.221 378.881C389.933 379.567 389.502 380.164 388.927 380.673C388.352 381.17 387.638 381.563 386.787 381.851C385.946 382.127 384.973 382.265 383.867 382.265C383.281 382.265 382.706 382.21 382.142 382.1C381.589 382 381.052 381.856 380.532 381.668C380.024 381.48 379.548 381.259 379.106 381.005C378.674 380.75 378.293 380.474 377.961 380.175L378.907 378.616C379.028 378.428 379.172 378.284 379.338 378.184C379.504 378.085 379.714 378.035 379.968 378.035C380.223 378.035 380.461 378.107 380.682 378.251C380.914 378.394 381.179 378.549 381.478 378.715C381.777 378.881 382.125 379.036 382.523 379.18C382.932 379.323 383.447 379.395 384.066 379.395C384.553 379.395 384.967 379.34 385.31 379.229C385.664 379.108 385.952 378.953 386.173 378.765C386.405 378.577 386.571 378.361 386.671 378.118C386.781 377.864 386.837 377.604 386.837 377.338C386.837 376.94 386.715 376.614 386.472 376.359C386.239 376.105 385.924 375.884 385.526 375.696C385.139 375.508 384.691 375.342 384.182 375.198C383.685 375.043 383.17 374.877 382.639 374.7C382.12 374.523 381.605 374.319 381.096 374.087C380.599 373.843 380.151 373.539 379.753 373.174C379.366 372.809 379.05 372.361 378.807 371.83C378.575 371.299 378.459 370.658 378.459 369.906C378.459 369.209 378.597 368.546 378.873 367.915C379.15 367.285 379.554 366.737 380.084 366.273C380.626 365.797 381.296 365.421 382.092 365.145C382.899 364.857 383.828 364.713 384.879 364.713C386.051 364.713 387.119 364.907 388.081 365.294C389.043 365.681 389.845 366.19 390.486 366.82L389.557 368.297ZM402.745 374.734C401.561 374.789 400.566 374.894 399.759 375.049C398.951 375.193 398.304 375.381 397.818 375.613C397.331 375.845 396.983 376.116 396.772 376.426C396.562 376.735 396.457 377.073 396.457 377.438C396.457 378.157 396.667 378.671 397.088 378.981C397.519 379.29 398.078 379.445 398.763 379.445C399.604 379.445 400.328 379.296 400.937 378.997C401.556 378.688 402.159 378.223 402.745 377.604V374.734ZM393.355 367.351C395.313 365.559 397.668 364.663 400.422 364.663C401.418 364.663 402.308 364.829 403.093 365.161C403.879 365.482 404.542 365.935 405.084 366.522C405.626 367.097 406.035 367.788 406.312 368.595C406.599 369.403 406.743 370.287 406.743 371.25V382H404.885C404.498 382 404.199 381.945 403.989 381.834C403.779 381.712 403.613 381.475 403.491 381.121L403.126 379.893C402.695 380.28 402.275 380.623 401.866 380.922C401.456 381.209 401.031 381.453 400.588 381.652C400.146 381.851 399.67 382 399.161 382.1C398.664 382.21 398.111 382.265 397.502 382.265C396.784 382.265 396.12 382.171 395.512 381.983C394.903 381.784 394.378 381.491 393.936 381.104C393.493 380.717 393.15 380.236 392.907 379.661C392.664 379.086 392.542 378.417 392.542 377.653C392.542 377.222 392.614 376.796 392.758 376.376C392.901 375.945 393.134 375.535 393.454 375.148C393.786 374.761 394.212 374.396 394.732 374.053C395.252 373.711 395.888 373.412 396.64 373.158C397.403 372.903 398.288 372.699 399.294 372.544C400.301 372.378 401.451 372.278 402.745 372.245V371.25C402.745 370.11 402.502 369.27 402.015 368.728C401.528 368.175 400.826 367.898 399.908 367.898C399.244 367.898 398.691 367.976 398.249 368.131C397.818 368.286 397.436 368.463 397.104 368.662C396.772 368.85 396.468 369.021 396.192 369.176C395.926 369.331 395.628 369.408 395.296 369.408C395.008 369.408 394.765 369.336 394.566 369.193C394.367 369.038 394.207 368.861 394.085 368.662L393.355 367.351ZM425.559 364.979L418.807 382H415.091L408.339 364.979H411.723C412.033 364.979 412.287 365.051 412.486 365.194C412.696 365.338 412.835 365.521 412.901 365.742L416.186 374.833C416.363 375.364 416.518 375.884 416.65 376.393C416.783 376.901 416.899 377.41 416.999 377.919C417.109 377.41 417.231 376.901 417.364 376.393C417.496 375.884 417.657 375.364 417.845 374.833L421.196 365.742C421.273 365.521 421.412 365.338 421.611 365.194C421.81 365.051 422.048 364.979 422.324 364.979H425.559ZM436.314 374.734C435.13 374.789 434.135 374.894 433.327 375.049C432.52 375.193 431.873 375.381 431.386 375.613C430.9 375.845 430.551 376.116 430.341 376.426C430.131 376.735 430.026 377.073 430.026 377.438C430.026 378.157 430.236 378.671 430.656 378.981C431.088 379.29 431.646 379.445 432.332 379.445C433.173 379.445 433.897 379.296 434.505 378.997C435.125 378.688 435.727 378.223 436.314 377.604V374.734ZM426.924 367.351C428.881 365.559 431.237 364.663 433.991 364.663C434.986 364.663 435.877 364.829 436.662 365.161C437.447 365.482 438.111 365.935 438.653 366.522C439.195 367.097 439.604 367.788 439.881 368.595C440.168 369.403 440.312 370.287 440.312 371.25V382H438.454C438.067 382 437.768 381.945 437.558 381.834C437.348 381.712 437.182 381.475 437.06 381.121L436.695 379.893C436.264 380.28 435.844 380.623 435.434 380.922C435.025 381.209 434.599 381.453 434.157 381.652C433.715 381.851 433.239 382 432.73 382.1C432.233 382.21 431.68 382.265 431.071 382.265C430.352 382.265 429.689 382.171 429.08 381.983C428.472 381.784 427.947 381.491 427.504 381.104C427.062 380.717 426.719 380.236 426.476 379.661C426.232 379.086 426.111 378.417 426.111 377.653C426.111 377.222 426.183 376.796 426.326 376.376C426.47 375.945 426.703 375.535 427.023 375.148C427.355 374.761 427.781 374.396 428.301 374.053C428.821 373.711 429.456 373.412 430.209 373.158C430.972 372.903 431.856 372.699 432.863 372.544C433.869 372.378 435.02 372.278 436.314 372.245V371.25C436.314 370.11 436.07 369.27 435.584 368.728C435.097 368.175 434.395 367.898 433.477 367.898C432.813 367.898 432.26 367.976 431.818 368.131C431.386 368.286 431.005 368.463 430.673 368.662C430.341 368.85 430.037 369.021 429.761 369.176C429.495 369.331 429.197 369.408 428.865 369.408C428.577 369.408 428.334 369.336 428.135 369.193C427.936 369.038 427.775 368.861 427.654 368.662L426.924 367.351ZM448.037 367.932C448.567 366.914 449.198 366.118 449.928 365.543C450.658 364.957 451.521 364.663 452.516 364.663C453.301 364.663 453.932 364.835 454.407 365.178L454.142 368.247C454.086 368.446 454.003 368.59 453.893 368.678C453.793 368.756 453.655 368.794 453.478 368.794C453.312 368.794 453.063 368.767 452.732 368.711C452.411 368.656 452.096 368.628 451.786 368.628C451.332 368.628 450.929 368.695 450.575 368.828C450.221 368.96 449.9 369.154 449.613 369.408C449.336 369.652 449.087 369.95 448.866 370.304C448.656 370.658 448.457 371.062 448.269 371.515V382H444.171V364.979H446.577C446.997 364.979 447.29 365.056 447.456 365.211C447.622 365.355 447.732 365.62 447.788 366.007L448.037 367.932Z" fill="#0E0670"/>
</svg>
