<svg width="412" height="291" viewBox="0 0 412 291" fill="none" xmlns="http://www.w3.org/2000/svg">
<mask id="path-1-inside-1_1919_383" fill="white">
<path fill-rule="evenodd" clip-rule="evenodd" d="M274.499 172.78C244.733 198.814 215.905 212.808 206.303 205.302C211.395 208.094 217.962 201.113 224.619 187.244C236.774 182.012 254.024 176.922 274.499 172.78ZM241.807 135.149C242.76 131.144 243.681 127.018 244.564 122.786C255.821 68.7889 256.49 17.8709 246.057 9.0579C235.625 0.244862 218.041 36.8741 206.784 90.8716C195.526 144.869 194.858 195.787 205.29 204.6C205.522 204.796 205.758 204.97 205.998 205.122C206.138 205.365 206.301 205.606 206.486 205.844C214.864 216.629 265.766 218.05 320.18 209.018C374.594 199.986 411.914 183.92 403.537 173.135C395.159 162.349 344.256 160.928 289.842 169.961C284.558 170.838 279.435 171.781 274.499 172.78C277.757 169.93 281.026 166.937 284.283 163.812C318.178 131.279 337.86 96.7844 328.243 86.7648C318.627 76.7452 283.353 94.9952 249.458 127.527C246.819 130.06 244.266 132.605 241.807 135.149ZM205.919 204.981C206.043 205.092 206.171 205.199 206.303 205.302C206.201 205.246 206.099 205.186 205.998 205.122C205.971 205.075 205.944 205.028 205.919 204.981ZM205.919 204.981C205.773 204.851 205.632 204.715 205.497 204.574C196.629 195.334 212.675 165.282 241.807 135.149C236.677 156.693 230.612 174.76 224.619 187.244C210.328 193.396 203.081 199.744 205.919 204.981Z"/>
</mask>
<path d="M244.564 122.786L248.27 123.559L248.27 123.559L244.564 122.786ZM246.057 9.0579L248.5 6.1658L248.5 6.1658L246.057 9.0579ZM206.784 90.8716L210.49 91.6443L210.49 91.6443L206.784 90.8716ZM205.29 204.6L202.847 207.492L202.847 207.492L205.29 204.6ZM206.486 205.844L209.476 203.521L209.476 203.521L206.486 205.844ZM320.18 209.018L319.56 205.283L319.56 205.283L320.18 209.018ZM403.537 173.135L406.526 170.812L406.526 170.812L403.537 173.135ZM289.842 169.961L290.462 173.695L290.462 173.695L289.842 169.961ZM203.971 208.285C207.565 211.094 212.43 211.52 217.374 210.794C222.41 210.055 228.227 208.029 234.476 205.032C247.003 199.027 261.937 188.796 276.992 175.629L272.007 169.93C257.295 182.797 242.932 192.581 231.203 198.205C225.324 201.023 220.274 202.715 216.274 203.302C212.182 203.903 209.842 203.263 208.635 202.319L203.971 208.285ZM204.483 208.622C206.763 209.872 209.232 209.981 211.574 209.2C213.782 208.464 215.779 206.981 217.559 205.19C221.116 201.611 224.641 195.947 228.032 188.882L221.206 185.606C217.94 192.41 214.853 197.172 212.189 199.852C210.859 201.19 209.843 201.796 209.18 202.017C208.65 202.194 208.389 202.128 208.123 201.982L204.483 208.622ZM226.116 190.722C237.948 185.628 254.924 180.603 275.25 176.49L273.749 169.069C253.124 173.242 235.6 178.396 223.122 183.767L226.116 190.722ZM245.49 136.026C246.452 131.985 247.38 127.825 248.27 123.559L240.857 122.014C239.982 126.212 239.069 130.302 238.124 134.272L245.49 136.026ZM248.27 123.559C253.939 96.3676 256.956 69.8936 257.23 49.0277C257.367 38.6073 256.822 29.4666 255.535 22.2849C254.892 18.6948 254.046 15.4938 252.954 12.8263C251.88 10.2014 250.457 7.81866 248.5 6.1658L243.614 11.95C244.266 12.5004 245.104 13.6367 245.946 15.6942C246.771 17.709 247.496 20.3538 248.082 23.6203C249.252 30.1518 249.792 38.7679 249.659 48.9283C249.392 69.224 246.446 95.2078 240.857 122.014L248.27 123.559ZM248.5 6.1658C246.409 4.39919 243.876 3.6263 241.181 4.09943C238.683 4.53806 236.456 5.97452 234.535 7.74805C230.704 11.2839 226.927 17.2521 223.317 24.7724C216.029 39.954 208.741 62.9343 203.078 90.0989L210.49 91.6443C216.084 64.8114 223.216 42.4784 230.143 28.0492C233.64 20.7641 236.918 15.8527 239.671 13.3117C241.041 12.0469 241.986 11.6457 242.491 11.5571C242.799 11.5031 243.097 11.5134 243.614 11.95L248.5 6.1658ZM203.078 90.0989C197.409 117.29 194.392 143.764 194.118 164.63C193.981 175.051 194.526 184.191 195.813 191.373C196.456 194.963 197.302 198.164 198.393 200.832C199.468 203.457 200.89 205.839 202.847 207.492L207.733 201.708C207.082 201.158 206.243 200.021 205.401 197.964C204.577 195.949 203.851 193.304 203.266 190.038C202.095 183.506 201.555 174.89 201.689 164.73C201.955 144.434 204.901 118.45 210.49 91.6443L203.078 90.0989ZM202.847 207.492C203.203 207.793 203.578 208.071 203.972 208.32L208.023 201.923C207.939 201.87 207.842 201.8 207.733 201.708L202.847 207.492ZM209.476 203.521C209.39 203.41 209.324 203.311 209.274 203.225L202.721 207.018C202.953 207.419 203.213 207.801 203.496 208.166L209.476 203.521ZM319.56 205.283C292.548 209.767 266.465 211.645 246.175 211.078C236.018 210.795 227.431 209.901 220.953 208.464C217.714 207.745 215.101 206.912 213.121 206.005C211.1 205.08 209.999 204.195 209.476 203.521L203.496 208.166C205.067 210.189 207.39 211.708 209.968 212.889C212.589 214.09 215.752 215.066 219.313 215.856C226.436 217.437 235.547 218.356 245.964 218.647C266.823 219.229 293.399 217.301 320.8 212.753L319.56 205.283ZM400.547 175.457C400.962 175.992 400.96 176.29 400.893 176.596C400.784 177.096 400.344 178.024 399.024 179.342C396.372 181.987 391.331 185.061 383.908 188.256C369.207 194.585 346.6 200.795 319.56 205.283L320.8 212.753C348.174 208.209 371.434 201.87 386.902 195.211C394.564 191.913 400.682 188.383 404.372 184.701C406.223 182.855 407.75 180.688 408.291 178.21C408.874 175.537 408.206 172.974 406.526 170.812L400.547 175.457ZM290.462 173.695C317.475 169.211 343.558 167.334 363.848 167.9C374.005 168.184 382.591 169.077 389.069 170.515C392.309 171.233 394.922 172.067 396.901 172.973C398.922 173.899 400.023 174.784 400.547 175.457L406.526 170.812C404.955 168.79 402.633 167.27 400.054 166.089C397.434 164.889 394.27 163.912 390.71 163.122C383.587 161.542 374.476 160.622 364.059 160.332C343.199 159.749 316.624 161.677 289.223 166.226L290.462 173.695ZM275.25 176.49C280.141 175.501 285.221 174.565 290.462 173.695L289.223 166.226C283.896 167.11 278.729 168.061 273.749 169.069L275.25 176.49ZM276.992 175.629C280.294 172.741 283.606 169.708 286.904 166.543L281.661 161.08C278.446 164.165 275.22 167.119 272.007 169.93L276.992 175.629ZM286.904 166.543C304.038 150.098 317.687 133.06 325.868 118.722C329.946 111.575 332.778 104.906 333.912 99.1926C335.02 93.609 334.668 87.991 330.975 84.1433L325.512 89.3863C326.627 90.5484 327.421 92.9996 326.485 97.7185C325.574 102.308 323.169 108.174 319.292 114.97C311.562 128.517 298.422 144.993 281.661 161.08L286.904 166.543ZM330.975 84.1433C327.282 80.2955 321.683 79.7132 316.059 80.5915C310.304 81.4901 303.524 84.0455 296.216 87.8266C281.554 95.4124 263.97 108.351 246.836 124.796L252.079 130.259C268.841 114.171 285.842 101.719 299.695 94.5517C306.644 90.9562 312.604 88.7946 317.227 88.0727C321.98 87.3304 324.397 88.2243 325.512 89.3863L330.975 84.1433ZM246.836 124.796C244.163 127.361 241.577 129.939 239.085 132.517L244.529 137.78C246.955 135.27 249.474 132.759 252.079 130.259L246.836 124.796ZM203.398 207.805C203.584 207.971 203.775 208.131 203.971 208.285L208.635 202.319C208.568 202.267 208.503 202.213 208.44 202.157L203.398 207.805ZM203.972 208.32C204.139 208.426 204.31 208.527 204.483 208.622L208.123 201.982C208.092 201.965 208.058 201.945 208.023 201.923L203.972 208.32ZM209.274 203.225C209.265 203.21 209.256 203.194 209.247 203.177L202.59 206.785C202.632 206.862 202.676 206.94 202.721 207.018L209.274 203.225ZM202.765 207.196C202.969 207.407 203.18 207.611 203.398 207.805L208.44 202.157C208.367 202.091 208.296 202.023 208.228 201.952L202.765 207.196ZM239.085 132.517C224.356 147.753 212.813 163.087 206.052 175.933C202.682 182.336 200.394 188.319 199.591 193.485C198.801 198.574 199.357 203.644 202.765 207.196L208.228 201.952C207.203 200.884 206.439 198.733 207.074 194.647C207.696 190.637 209.578 185.492 212.752 179.46C219.08 167.437 230.126 152.678 244.529 137.78L239.085 132.517ZM228.032 188.882C234.182 176.069 240.324 157.721 245.49 136.026L238.124 134.272C233.03 155.665 227.041 173.45 221.206 185.606L228.032 188.882ZM209.248 203.177C209.081 202.869 209.033 202.61 209.204 202.125C209.427 201.495 210.04 200.513 211.421 199.231C214.189 196.662 219.101 193.741 226.116 190.722L223.122 183.767C215.846 186.899 209.989 190.229 206.27 193.681C204.408 195.41 202.849 197.381 202.064 199.606C201.227 201.977 201.338 204.474 202.59 206.785L209.248 203.177Z" fill="#0E0670" mask="url(#path-1-inside-1_1919_383)"/>
<mask id="path-3-inside-2_1919_383" fill="white">
<path fill-rule="evenodd" clip-rule="evenodd" d="M171.23 136.554C197.272 166.33 211.268 195.166 203.746 204.76C206.554 199.666 199.573 193.095 185.693 186.432C180.461 174.278 175.372 157.028 171.23 136.554ZM133.597 169.245C129.592 168.291 125.468 167.37 121.236 166.488C67.2389 155.231 16.3209 154.562 7.50781 164.995C-1.30523 175.427 35.324 193.011 89.3215 204.268C143.319 215.526 194.237 216.194 203.05 205.762C203.245 205.531 203.418 205.297 203.569 205.059C203.813 204.918 204.055 204.754 204.294 204.568C215.08 196.191 216.501 145.288 207.468 90.8743C198.436 36.4604 182.37 -0.859512 171.585 7.51803C160.8 15.8956 159.378 66.7981 168.411 121.212C169.288 126.496 170.231 131.619 171.23 136.554C168.381 133.297 165.387 130.028 162.262 126.772C129.73 92.8761 95.2351 73.1941 85.2155 82.8107C75.1959 92.4273 93.4458 127.701 125.978 161.596C128.51 164.234 131.053 166.786 133.597 169.245ZM203.431 205.136C203.54 205.014 203.645 204.889 203.746 204.76C203.691 204.86 203.632 204.96 203.569 205.059C203.523 205.085 203.477 205.111 203.431 205.136ZM203.431 205.136C203.301 205.281 203.166 205.422 203.025 205.557C193.785 214.425 163.731 198.378 133.597 169.245C155.141 174.374 173.208 180.44 185.693 186.432C191.845 200.726 198.194 207.974 203.431 205.136Z"/>
</mask>
<path d="M121.236 166.488L122.009 162.782L122.009 162.782L121.236 166.488ZM7.50781 164.995L4.61571 162.552L4.61571 162.552L7.50781 164.995ZM89.3215 204.268L90.0942 200.562L90.0942 200.562L89.3215 204.268ZM203.05 205.762L205.942 208.205L205.942 208.205L203.05 205.762ZM204.294 204.568L206.616 207.558L206.617 207.558L204.294 204.568ZM171.585 7.51803L169.263 4.52811L169.263 4.52811L171.585 7.51803ZM168.411 121.212L172.146 120.592L172.146 120.592L168.411 121.212ZM206.725 207.096C209.541 203.504 209.97 198.639 209.247 193.694C208.51 188.658 206.484 182.84 203.489 176.589C197.483 164.06 187.251 149.121 174.079 134.062L168.38 139.047C181.252 153.763 191.038 168.13 196.66 179.862C199.479 185.741 201.169 190.792 201.755 194.791C202.353 198.882 201.711 201.219 200.766 202.424L206.725 207.096ZM207.061 206.588C208.318 204.309 208.433 201.838 207.655 199.492C206.922 197.281 205.439 195.282 203.647 193.5C200.068 189.94 194.401 186.413 187.331 183.019L184.055 189.846C190.864 193.114 195.628 196.203 198.308 198.869C199.645 200.199 200.249 201.214 200.468 201.876C200.643 202.404 200.578 202.664 200.43 202.932L207.061 206.588ZM189.171 184.936C184.078 173.104 179.052 156.128 174.941 135.803L167.519 137.305C171.691 157.928 176.845 175.452 182.216 187.929L189.171 184.936ZM134.473 165.562C130.434 164.6 126.274 163.671 122.009 162.782L120.464 170.194C124.661 171.07 128.751 171.983 132.72 172.928L134.473 165.562ZM122.009 162.782C94.8175 157.113 68.3435 154.096 47.4776 153.822C37.0572 153.685 27.9165 154.23 20.7348 155.517C17.1447 156.16 13.9437 157.006 11.2762 158.098C8.65128 159.172 6.26857 160.595 4.61571 162.552L10.3999 167.438C10.9503 166.786 12.0867 165.948 14.1441 165.106C16.159 164.281 18.8037 163.556 22.0702 162.97C28.6017 161.8 37.2178 161.26 47.3782 161.393C67.6739 161.66 93.6577 164.606 120.464 170.194L122.009 162.782ZM4.61571 162.552C2.8491 164.643 2.07621 167.176 2.54934 169.871C2.98797 172.368 4.42443 174.596 6.19796 176.517C9.73378 180.348 15.702 184.125 23.2223 187.735C38.4039 195.023 61.3842 202.311 88.5488 207.974L90.0942 200.562C63.2613 194.968 40.9283 187.836 26.4991 180.909C19.214 177.412 14.3026 174.134 11.7616 171.381C10.4968 170.011 10.0956 169.065 10.0071 168.561C9.95297 168.253 9.96327 167.955 10.3999 167.438L4.61571 162.552ZM88.5488 207.974C115.74 213.643 142.214 216.66 163.08 216.934C173.501 217.071 182.641 216.526 189.823 215.239C193.413 214.596 196.614 213.75 199.282 212.658C201.907 211.584 204.289 210.161 205.942 208.205L200.158 203.319C199.608 203.97 198.471 204.809 196.414 205.651C194.399 206.475 191.754 207.201 188.488 207.786C181.956 208.956 173.34 209.497 163.18 209.363C142.884 209.097 116.9 206.15 90.0942 200.562L88.5488 207.974ZM205.942 208.205C206.241 207.851 206.517 207.479 206.765 207.087L200.372 203.031C200.319 203.114 200.249 203.211 200.158 203.319L205.942 208.205ZM201.972 201.578C201.86 201.665 201.76 201.731 201.674 201.781L205.463 208.337C205.866 208.104 206.25 207.843 206.616 207.558L201.972 201.578ZM203.734 91.4943C208.218 118.507 210.095 144.59 209.529 164.879C209.245 175.037 208.352 183.623 206.914 190.101C206.196 193.341 205.362 195.954 204.456 197.933C203.53 199.954 202.645 201.055 201.972 201.578L206.617 207.558C208.639 205.987 210.159 203.665 211.34 201.086C212.54 198.466 213.516 195.302 214.306 191.741C215.887 184.619 216.807 175.508 217.097 165.091C217.68 144.231 215.752 117.656 211.203 90.2544L203.734 91.4943ZM173.907 10.5079C174.442 10.0929 174.74 10.0948 175.046 10.1615C175.546 10.2707 176.475 10.7103 177.792 12.0303C180.438 14.6821 183.511 19.7239 186.707 27.1463C193.035 41.8476 199.245 64.4545 203.734 91.4943L211.203 90.2544C206.659 62.8802 200.32 39.6202 193.662 24.1524C190.363 16.4903 186.834 10.3721 183.152 6.68208C181.305 4.83121 179.138 3.30456 176.66 2.7638C173.988 2.1805 171.425 2.8488 169.263 4.52811L173.907 10.5079ZM172.146 120.592C167.662 93.5794 165.784 67.4967 166.351 47.2071C166.634 37.0498 167.528 28.4631 168.965 21.9851C169.684 18.7453 170.517 16.1326 171.424 14.1533C172.349 12.1321 173.234 11.0311 173.907 10.5079L169.263 4.52811C167.24 6.09929 165.721 8.42161 164.54 11.0002C163.339 13.6207 162.363 16.7843 161.573 20.345C159.992 27.4678 159.073 36.5784 158.782 46.9957C158.199 67.8553 160.128 94.4308 164.676 121.832L172.146 120.592ZM174.941 135.803C173.951 130.913 173.016 125.834 172.146 120.592L164.676 121.832C165.56 127.158 166.512 132.325 167.519 137.305L174.941 135.803ZM174.079 134.062C171.192 130.76 168.159 127.448 164.994 124.15L159.531 129.393C162.616 132.607 165.57 135.833 168.38 139.047L174.079 134.062ZM164.994 124.15C148.549 107.016 131.511 93.3668 117.173 85.1858C110.026 81.108 103.356 78.2765 97.6433 77.1425C92.0597 76.0342 86.4417 76.3863 82.5939 80.0793L87.837 85.5421C88.9991 84.4268 91.4503 83.6328 96.1691 84.5695C100.759 85.4805 106.624 87.8848 113.42 91.7624C126.968 99.4921 143.444 112.632 159.531 129.393L164.994 124.15ZM82.5939 80.0793C78.7462 83.7722 78.1639 89.371 79.0422 94.9955C79.9408 100.75 82.4962 107.531 86.2773 114.839C93.8631 129.5 106.802 147.084 123.247 164.218L128.709 158.975C112.622 142.213 100.17 125.212 93.0023 111.359C89.4069 104.41 87.2452 98.4504 86.5233 93.8273C85.7811 89.074 86.6749 86.6574 87.837 85.5421L82.5939 80.0793ZM123.247 164.218C125.811 166.89 128.388 169.475 130.965 171.967L136.228 166.523C133.719 164.097 131.209 161.579 128.709 158.975L123.247 164.218ZM206.256 207.657C206.418 207.475 206.575 207.288 206.725 207.096L200.766 202.424C200.715 202.49 200.662 202.553 200.607 202.614L206.256 207.657ZM206.765 207.087C206.869 206.924 206.968 206.757 207.061 206.588L200.43 202.932C200.413 202.963 200.394 202.996 200.372 203.031L206.765 207.087ZM201.675 201.781C201.658 201.79 201.643 201.799 201.628 201.807L205.235 208.464C205.312 208.423 205.388 208.38 205.463 208.337L201.675 201.781ZM205.646 208.289C205.858 208.086 206.061 207.875 206.256 207.657L200.607 202.614C200.542 202.687 200.474 202.758 200.403 202.826L205.646 208.289ZM130.965 171.967C146.201 186.696 161.536 198.24 174.383 205.002C180.786 208.372 186.769 210.66 191.935 211.463C197.024 212.253 202.094 211.698 205.646 208.289L200.403 202.826C199.335 203.851 197.184 204.615 193.097 203.981C189.087 203.358 183.941 201.476 177.909 198.301C165.886 191.973 151.126 180.926 136.228 166.523L130.965 171.967ZM187.331 183.019C174.518 176.869 156.169 170.727 134.473 165.562L132.72 172.928C154.113 178.021 171.899 184.011 184.055 189.846L187.331 183.019ZM201.628 201.807C201.32 201.974 201.06 202.021 200.575 201.85C199.945 201.628 198.963 201.014 197.68 199.633C195.111 196.865 192.19 191.951 189.171 184.936L182.216 187.929C185.348 195.207 188.678 201.064 192.131 204.784C193.859 206.646 195.831 208.206 198.056 208.991C200.427 209.827 202.925 209.716 205.235 208.464L201.628 201.807Z" fill="#0E0670" mask="url(#path-3-inside-2_1919_383)"/>
<path d="M89.4434 242.455V277H86.1466C85.6369 277 85.2069 276.92 84.8565 276.761C84.522 276.586 84.1955 276.299 83.877 275.901L65.8401 252.871C65.9356 253.922 65.9834 254.894 65.9834 255.786V277H60.3215V242.455H63.69C63.9607 242.455 64.1916 242.471 64.3828 242.503C64.5898 242.519 64.765 242.567 64.9083 242.646C65.0676 242.71 65.2189 242.813 65.3623 242.957C65.5056 243.084 65.6649 243.259 65.8401 243.482L83.9487 266.608C83.9009 266.05 83.8611 265.501 83.8292 264.959C83.7974 264.418 83.7814 263.916 83.7814 263.454V242.455H89.4434ZM103.587 277H97.1363V242.455H103.587V277ZM131.556 271.696V277H111.321V242.455H117.747V271.696H131.556ZM167.875 259.728C167.875 262.26 167.453 264.609 166.609 266.775C165.781 268.925 164.602 270.789 163.073 272.365C161.545 273.942 159.705 275.176 157.555 276.068C155.405 276.944 153.016 277.382 150.388 277.382C147.776 277.382 145.395 276.944 143.245 276.068C141.095 275.176 139.247 273.942 137.702 272.365C136.173 270.789 134.987 268.925 134.143 266.775C133.299 264.609 132.877 262.26 132.877 259.728C132.877 257.195 133.299 254.854 134.143 252.704C134.987 250.538 136.173 248.666 137.702 247.09C139.247 245.513 141.095 244.287 143.245 243.411C145.395 242.519 147.776 242.073 150.388 242.073C152.14 242.073 153.788 242.28 155.333 242.694C156.878 243.092 158.295 243.665 159.586 244.414C160.876 245.147 162.03 246.047 163.05 247.114C164.085 248.165 164.961 249.343 165.677 250.649C166.394 251.955 166.936 253.373 167.302 254.902C167.684 256.431 167.875 258.039 167.875 259.728ZM161.306 259.728C161.306 257.832 161.051 256.136 160.541 254.639C160.031 253.126 159.307 251.844 158.367 250.793C157.427 249.742 156.281 248.937 154.927 248.38C153.589 247.822 152.076 247.544 150.388 247.544C148.7 247.544 147.179 247.822 145.825 248.38C144.487 248.937 143.34 249.742 142.385 250.793C141.445 251.844 140.72 253.126 140.211 254.639C139.701 256.136 139.446 257.832 139.446 259.728C139.446 261.623 139.701 263.327 140.211 264.84C140.72 266.337 141.445 267.611 142.385 268.662C143.34 269.698 144.487 270.494 145.825 271.051C147.179 271.609 148.7 271.888 150.388 271.888C152.076 271.888 153.589 271.609 154.927 271.051C156.281 270.494 157.427 269.698 158.367 268.662C159.307 267.611 160.031 266.337 160.541 264.84C161.051 263.327 161.306 261.623 161.306 259.728ZM206.463 259.728C206.463 262.26 206.041 264.609 205.197 266.775C204.369 268.925 203.19 270.789 201.661 272.365C200.132 273.942 198.293 275.176 196.143 276.068C193.993 276.944 191.604 277.382 188.976 277.382C186.364 277.382 183.983 276.944 181.833 276.068C179.683 275.176 177.835 273.942 176.29 272.365C174.761 270.789 173.575 268.925 172.731 266.775C171.887 264.609 171.464 262.26 171.464 259.728C171.464 257.195 171.887 254.854 172.731 252.704C173.575 250.538 174.761 248.666 176.29 247.09C177.835 245.513 179.683 244.287 181.833 243.411C183.983 242.519 186.364 242.073 188.976 242.073C190.728 242.073 192.376 242.28 193.921 242.694C195.466 243.092 196.883 243.665 198.173 244.414C199.464 245.147 200.618 246.047 201.638 247.114C202.673 248.165 203.549 249.343 204.265 250.649C204.982 251.955 205.524 253.373 205.89 254.902C206.272 256.431 206.463 258.039 206.463 259.728ZM199.894 259.728C199.894 257.832 199.639 256.136 199.129 254.639C198.619 253.126 197.895 251.844 196.955 250.793C196.015 249.742 194.869 248.937 193.515 248.38C192.177 247.822 190.664 247.544 188.976 247.544C187.288 247.544 185.767 247.822 184.413 248.38C183.075 248.937 181.928 249.742 180.973 250.793C180.033 251.844 179.308 253.126 178.799 254.639C178.289 256.136 178.034 257.832 178.034 259.728C178.034 261.623 178.289 263.327 178.799 264.84C179.308 266.337 180.033 267.611 180.973 268.662C181.928 269.698 183.075 270.494 184.413 271.051C185.767 271.609 187.288 271.888 188.976 271.888C190.664 271.888 192.177 271.609 193.515 271.051C194.869 270.494 196.015 269.698 196.955 268.662C197.895 267.611 198.619 266.337 199.129 264.84C199.639 263.327 199.894 261.623 199.894 259.728ZM220.67 263.297C220.559 263.474 220.443 263.601 220.322 263.678C220.2 263.745 220.045 263.778 219.857 263.778C219.658 263.778 219.442 263.722 219.21 263.612C218.989 263.501 218.729 263.38 218.43 263.247C218.132 263.103 217.789 262.976 217.402 262.865C217.026 262.755 216.578 262.699 216.058 262.699C215.251 262.699 214.615 262.871 214.15 263.214C213.697 263.557 213.47 264.004 213.47 264.557C213.47 264.922 213.586 265.232 213.818 265.487C214.062 265.73 214.377 265.946 214.764 266.134C215.162 266.322 215.61 266.493 216.108 266.648C216.605 266.792 217.109 266.952 217.617 267.129C218.137 267.306 218.646 267.511 219.144 267.743C219.641 267.964 220.084 268.252 220.471 268.605C220.869 268.948 221.184 269.363 221.417 269.85C221.66 270.336 221.782 270.923 221.782 271.608C221.782 272.427 221.632 273.184 221.334 273.881C221.046 274.567 220.615 275.164 220.04 275.673C219.464 276.17 218.751 276.563 217.899 276.851C217.059 277.127 216.086 277.265 214.98 277.265C214.393 277.265 213.818 277.21 213.254 277.1C212.701 277 212.165 276.856 211.645 276.668C211.136 276.48 210.661 276.259 210.218 276.005C209.787 275.75 209.405 275.474 209.074 275.175L210.019 273.616C210.141 273.428 210.285 273.284 210.451 273.184C210.616 273.085 210.827 273.035 211.081 273.035C211.335 273.035 211.573 273.107 211.794 273.251C212.027 273.394 212.292 273.549 212.591 273.715C212.889 273.881 213.238 274.036 213.636 274.18C214.045 274.323 214.559 274.395 215.179 274.395C215.665 274.395 216.08 274.34 216.423 274.229C216.777 274.108 217.064 273.953 217.286 273.765C217.518 273.577 217.684 273.361 217.783 273.118C217.894 272.864 217.949 272.604 217.949 272.338C217.949 271.94 217.828 271.614 217.584 271.359C217.352 271.105 217.037 270.884 216.639 270.696C216.252 270.508 215.804 270.342 215.295 270.198C214.797 270.043 214.283 269.877 213.752 269.7C213.232 269.523 212.718 269.319 212.209 269.087C211.711 268.843 211.263 268.539 210.865 268.174C210.478 267.809 210.163 267.361 209.92 266.83C209.687 266.299 209.571 265.658 209.571 264.906C209.571 264.209 209.71 263.546 209.986 262.915C210.263 262.285 210.666 261.737 211.197 261.273C211.739 260.797 212.408 260.421 213.204 260.145C214.012 259.857 214.941 259.713 215.992 259.713C217.164 259.713 218.231 259.907 219.193 260.294C220.156 260.681 220.958 261.19 221.599 261.82L220.67 263.297ZM228.963 261.804C229.627 261.184 230.357 260.681 231.153 260.294C231.95 259.907 232.884 259.713 233.957 259.713C234.886 259.713 235.71 259.874 236.429 260.194C237.148 260.504 237.745 260.946 238.221 261.522C238.707 262.086 239.072 262.766 239.316 263.562C239.57 264.347 239.697 265.216 239.697 266.167V277H235.599V266.167C235.599 265.127 235.362 264.325 234.886 263.761C234.41 263.186 233.686 262.898 232.713 262.898C232.005 262.898 231.341 263.059 230.722 263.38C230.103 263.7 229.516 264.137 228.963 264.69V277H224.866V252.347H228.963V261.804ZM252.586 269.734C251.403 269.789 250.407 269.894 249.6 270.049C248.792 270.193 248.145 270.381 247.659 270.613C247.172 270.845 246.824 271.116 246.614 271.426C246.403 271.735 246.298 272.073 246.298 272.438C246.298 273.157 246.509 273.671 246.929 273.981C247.36 274.29 247.919 274.445 248.604 274.445C249.445 274.445 250.169 274.296 250.778 273.997C251.397 273.688 252 273.223 252.586 272.604V269.734ZM243.196 262.351C245.154 260.559 247.509 259.663 250.263 259.663C251.259 259.663 252.149 259.829 252.934 260.161C253.72 260.482 254.383 260.935 254.925 261.522C255.467 262.097 255.876 262.788 256.153 263.595C256.44 264.403 256.584 265.287 256.584 266.25V277H254.726C254.339 277 254.04 276.945 253.83 276.834C253.62 276.712 253.454 276.475 253.333 276.121L252.968 274.893C252.536 275.28 252.116 275.623 251.707 275.922C251.298 276.209 250.872 276.453 250.429 276.652C249.987 276.851 249.511 277 249.003 277.1C248.505 277.21 247.952 277.265 247.344 277.265C246.625 277.265 245.961 277.171 245.353 276.983C244.744 276.784 244.219 276.491 243.777 276.104C243.334 275.717 242.991 275.236 242.748 274.661C242.505 274.086 242.383 273.417 242.383 272.653C242.383 272.222 242.455 271.796 242.599 271.376C242.743 270.945 242.975 270.535 243.296 270.148C243.627 269.761 244.053 269.396 244.573 269.053C245.093 268.711 245.729 268.412 246.481 268.158C247.244 267.903 248.129 267.699 249.135 267.544C250.142 267.378 251.292 267.278 252.586 267.245V266.25C252.586 265.11 252.343 264.27 251.856 263.728C251.369 263.175 250.667 262.898 249.749 262.898C249.086 262.898 248.533 262.976 248.09 263.131C247.659 263.286 247.277 263.463 246.945 263.662C246.614 263.85 246.309 264.021 246.033 264.176C245.768 264.331 245.469 264.408 245.137 264.408C244.85 264.408 244.606 264.336 244.407 264.193C244.208 264.038 244.048 263.861 243.926 263.662L243.196 262.351ZM264.541 261.804C265.205 261.184 265.935 260.681 266.731 260.294C267.527 259.907 268.462 259.713 269.535 259.713C270.464 259.713 271.288 259.874 272.007 260.194C272.726 260.504 273.323 260.946 273.798 261.522C274.285 262.086 274.65 262.766 274.893 263.562C275.148 264.347 275.275 265.216 275.275 266.167V277H271.177V266.167C271.177 265.127 270.939 264.325 270.464 263.761C269.988 263.186 269.264 262.898 268.291 262.898C267.583 262.898 266.919 263.059 266.3 263.38C265.68 263.7 265.094 264.137 264.541 264.69V277H260.443V252.347H264.541V261.804ZM289.557 263.297C289.447 263.474 289.331 263.601 289.209 263.678C289.087 263.745 288.932 263.778 288.744 263.778C288.545 263.778 288.33 263.722 288.097 263.612C287.876 263.501 287.616 263.38 287.318 263.247C287.019 263.103 286.676 262.976 286.289 262.865C285.913 262.755 285.465 262.699 284.945 262.699C284.138 262.699 283.502 262.871 283.037 263.214C282.584 263.557 282.357 264.004 282.357 264.557C282.357 264.922 282.473 265.232 282.706 265.487C282.949 265.73 283.264 265.946 283.651 266.134C284.049 266.322 284.497 266.493 284.995 266.648C285.493 266.792 285.996 266.952 286.505 267.129C287.025 267.306 287.533 267.511 288.031 267.743C288.529 267.964 288.971 268.252 289.358 268.605C289.756 268.948 290.072 269.363 290.304 269.85C290.547 270.336 290.669 270.923 290.669 271.608C290.669 272.427 290.52 273.184 290.221 273.881C289.933 274.567 289.502 275.164 288.927 275.673C288.352 276.17 287.638 276.563 286.787 276.851C285.946 277.127 284.973 277.265 283.867 277.265C283.281 277.265 282.706 277.21 282.142 277.1C281.589 277 281.052 276.856 280.532 276.668C280.024 276.48 279.548 276.259 279.106 276.005C278.674 275.75 278.293 275.474 277.961 275.175L278.907 273.616C279.028 273.428 279.172 273.284 279.338 273.184C279.504 273.085 279.714 273.035 279.968 273.035C280.223 273.035 280.461 273.107 280.682 273.251C280.914 273.394 281.179 273.549 281.478 273.715C281.777 273.881 282.125 274.036 282.523 274.18C282.932 274.323 283.447 274.395 284.066 274.395C284.553 274.395 284.967 274.34 285.31 274.229C285.664 274.108 285.952 273.953 286.173 273.765C286.405 273.577 286.571 273.361 286.671 273.118C286.781 272.864 286.837 272.604 286.837 272.338C286.837 271.94 286.715 271.614 286.472 271.359C286.239 271.105 285.924 270.884 285.526 270.696C285.139 270.508 284.691 270.342 284.182 270.198C283.685 270.043 283.17 269.877 282.639 269.7C282.12 269.523 281.605 269.319 281.096 269.087C280.599 268.843 280.151 268.539 279.753 268.174C279.366 267.809 279.05 267.361 278.807 266.83C278.575 266.299 278.459 265.658 278.459 264.906C278.459 264.209 278.597 263.546 278.873 262.915C279.15 262.285 279.554 261.737 280.084 261.273C280.626 260.797 281.296 260.421 282.092 260.145C282.899 259.857 283.828 259.713 284.879 259.713C286.051 259.713 287.119 259.907 288.081 260.294C289.043 260.681 289.845 261.19 290.486 261.82L289.557 263.297ZM302.745 269.734C301.561 269.789 300.566 269.894 299.759 270.049C298.951 270.193 298.304 270.381 297.818 270.613C297.331 270.845 296.983 271.116 296.772 271.426C296.562 271.735 296.457 272.073 296.457 272.438C296.457 273.157 296.667 273.671 297.088 273.981C297.519 274.29 298.078 274.445 298.763 274.445C299.604 274.445 300.328 274.296 300.937 273.997C301.556 273.688 302.159 273.223 302.745 272.604V269.734ZM293.355 262.351C295.313 260.559 297.668 259.663 300.422 259.663C301.418 259.663 302.308 259.829 303.093 260.161C303.879 260.482 304.542 260.935 305.084 261.522C305.626 262.097 306.035 262.788 306.312 263.595C306.599 264.403 306.743 265.287 306.743 266.25V277H304.885C304.498 277 304.199 276.945 303.989 276.834C303.779 276.712 303.613 276.475 303.491 276.121L303.126 274.893C302.695 275.28 302.275 275.623 301.866 275.922C301.456 276.209 301.031 276.453 300.588 276.652C300.146 276.851 299.67 277 299.161 277.1C298.664 277.21 298.111 277.265 297.502 277.265C296.784 277.265 296.12 277.171 295.512 276.983C294.903 276.784 294.378 276.491 293.936 276.104C293.493 275.717 293.15 275.236 292.907 274.661C292.664 274.086 292.542 273.417 292.542 272.653C292.542 272.222 292.614 271.796 292.758 271.376C292.901 270.945 293.134 270.535 293.454 270.148C293.786 269.761 294.212 269.396 294.732 269.053C295.252 268.711 295.888 268.412 296.64 268.158C297.403 267.903 298.288 267.699 299.294 267.544C300.301 267.378 301.451 267.278 302.745 267.245V266.25C302.745 265.11 302.502 264.27 302.015 263.728C301.528 263.175 300.826 262.898 299.908 262.898C299.244 262.898 298.691 262.976 298.249 263.131C297.818 263.286 297.436 263.463 297.104 263.662C296.772 263.85 296.468 264.021 296.192 264.176C295.926 264.331 295.628 264.408 295.296 264.408C295.008 264.408 294.765 264.336 294.566 264.193C294.367 264.038 294.207 263.861 294.085 263.662L293.355 262.351ZM325.559 259.979L318.807 277H315.091L308.339 259.979H311.723C312.033 259.979 312.287 260.051 312.486 260.194C312.696 260.338 312.835 260.521 312.901 260.742L316.186 269.833C316.363 270.364 316.518 270.884 316.65 271.393C316.783 271.901 316.899 272.41 316.999 272.919C317.109 272.41 317.231 271.901 317.364 271.393C317.496 270.884 317.657 270.364 317.845 269.833L321.196 260.742C321.273 260.521 321.412 260.338 321.611 260.194C321.81 260.051 322.048 259.979 322.324 259.979H325.559ZM336.314 269.734C335.13 269.789 334.135 269.894 333.327 270.049C332.52 270.193 331.873 270.381 331.386 270.613C330.9 270.845 330.551 271.116 330.341 271.426C330.131 271.735 330.026 272.073 330.026 272.438C330.026 273.157 330.236 273.671 330.656 273.981C331.088 274.29 331.646 274.445 332.332 274.445C333.173 274.445 333.897 274.296 334.505 273.997C335.125 273.688 335.727 273.223 336.314 272.604V269.734ZM326.924 262.351C328.881 260.559 331.237 259.663 333.991 259.663C334.986 259.663 335.877 259.829 336.662 260.161C337.447 260.482 338.111 260.935 338.653 261.522C339.195 262.097 339.604 262.788 339.881 263.595C340.168 264.403 340.312 265.287 340.312 266.25V277H338.454C338.067 277 337.768 276.945 337.558 276.834C337.348 276.712 337.182 276.475 337.06 276.121L336.695 274.893C336.264 275.28 335.844 275.623 335.434 275.922C335.025 276.209 334.599 276.453 334.157 276.652C333.715 276.851 333.239 277 332.73 277.1C332.233 277.21 331.68 277.265 331.071 277.265C330.352 277.265 329.689 277.171 329.08 276.983C328.472 276.784 327.947 276.491 327.504 276.104C327.062 275.717 326.719 275.236 326.476 274.661C326.232 274.086 326.111 273.417 326.111 272.653C326.111 272.222 326.183 271.796 326.326 271.376C326.47 270.945 326.703 270.535 327.023 270.148C327.355 269.761 327.781 269.396 328.301 269.053C328.821 268.711 329.456 268.412 330.209 268.158C330.972 267.903 331.856 267.699 332.863 267.544C333.869 267.378 335.02 267.278 336.314 267.245V266.25C336.314 265.11 336.07 264.27 335.584 263.728C335.097 263.175 334.395 262.898 333.477 262.898C332.813 262.898 332.26 262.976 331.818 263.131C331.386 263.286 331.005 263.463 330.673 263.662C330.341 263.85 330.037 264.021 329.761 264.176C329.495 264.331 329.197 264.408 328.865 264.408C328.577 264.408 328.334 264.336 328.135 264.193C327.936 264.038 327.775 263.861 327.654 263.662L326.924 262.351ZM348.037 262.932C348.567 261.914 349.198 261.118 349.928 260.543C350.658 259.957 351.521 259.663 352.516 259.663C353.301 259.663 353.932 259.835 354.407 260.178L354.142 263.247C354.086 263.446 354.003 263.59 353.893 263.678C353.793 263.756 353.655 263.794 353.478 263.794C353.312 263.794 353.063 263.767 352.732 263.711C352.411 263.656 352.096 263.628 351.786 263.628C351.332 263.628 350.929 263.695 350.575 263.828C350.221 263.96 349.9 264.154 349.613 264.408C349.336 264.652 349.087 264.95 348.866 265.304C348.656 265.658 348.457 266.062 348.269 266.515V277H344.171V259.979H346.577C346.997 259.979 347.29 260.056 347.456 260.211C347.622 260.355 347.732 260.62 347.788 261.007L348.037 262.932Z" fill="#0E0670"/>
</svg>
