<svg width="399" height="272" viewBox="0 0 399 272" fill="none" xmlns="http://www.w3.org/2000/svg">
<path fill-rule="evenodd" clip-rule="evenodd" d="M268.3 166.437C238.534 192.471 209.706 206.465 200.104 198.959C205.196 201.751 211.763 194.77 218.42 180.901C230.575 175.669 247.825 170.579 268.3 166.437ZM235.608 128.806C236.561 124.801 237.482 120.675 238.365 116.443C249.622 62.4458 250.291 11.5278 239.858 2.71477C229.426 -6.09827 211.842 30.531 200.585 84.5285C189.327 138.526 188.658 189.444 199.091 198.257C199.323 198.453 199.559 198.627 199.799 198.779C199.939 199.022 200.102 199.263 200.287 199.501C208.665 210.286 259.567 211.707 313.981 202.675C368.395 193.643 405.715 177.577 397.337 166.792C388.96 156.006 338.057 154.585 283.643 163.617C278.359 164.495 273.236 165.438 268.3 166.437C271.558 163.587 274.827 160.594 278.083 157.468C311.979 124.936 331.661 90.4413 322.044 80.4217C312.428 70.4021 277.154 88.652 243.259 121.184C240.62 123.717 238.067 126.262 235.608 128.806ZM199.72 198.638C199.844 198.749 199.972 198.856 200.104 198.959C200.002 198.903 199.9 198.843 199.799 198.779C199.772 198.732 199.745 198.685 199.72 198.638ZM199.72 198.638C199.574 198.508 199.433 198.372 199.298 198.231C190.43 188.991 206.476 158.939 235.608 128.806C230.478 150.35 224.413 168.416 218.42 180.901C204.129 187.053 196.882 193.401 199.72 198.638Z" fill="#0E0670"/>
<path fill-rule="evenodd" clip-rule="evenodd" d="M165.031 130.211C191.073 159.987 205.069 188.823 197.547 198.417C200.355 193.323 193.374 186.751 179.494 180.089C174.262 167.935 169.173 150.685 165.031 130.211ZM127.397 162.902C123.393 161.948 119.268 161.027 115.037 160.145C61.0398 148.888 10.1218 148.219 1.30872 158.652C-7.50432 169.084 29.1249 186.667 83.1224 197.925C137.12 209.183 188.038 209.851 196.851 199.419C197.046 199.188 197.219 198.953 197.37 198.716C197.614 198.574 197.856 198.411 198.095 198.225C208.881 189.848 210.302 138.945 201.269 84.5312C192.237 30.1173 176.171 -7.20263 165.386 1.1749C154.6 9.55245 153.179 60.455 162.212 114.869C163.089 120.153 164.032 125.276 165.031 130.211C162.182 126.953 159.188 123.685 156.063 120.428C123.531 86.5329 89.036 66.851 79.0164 76.4675C68.9968 86.0841 87.2467 121.358 119.779 155.253C122.311 157.891 124.854 160.443 127.397 162.902ZM197.232 198.793C197.341 198.671 197.446 198.546 197.547 198.417C197.491 198.517 197.432 198.617 197.37 198.716C197.324 198.742 197.278 198.768 197.232 198.793ZM197.232 198.793C197.102 198.938 196.967 199.079 196.826 199.214C187.586 208.082 157.532 192.035 127.397 162.902C148.942 168.031 167.009 174.097 179.494 180.089C185.646 194.382 191.995 201.63 197.232 198.793Z" fill="#0E0670"/>
<path d="M83.2443 236.112V270.657H79.9475C79.4378 270.657 79.0078 270.577 78.6574 270.418C78.3229 270.243 77.9964 269.956 77.6779 269.558L59.641 246.528C59.7365 247.579 59.7843 248.551 59.7843 249.443V270.657H54.1224V236.112H57.4909C57.7616 236.112 57.9925 236.128 58.1837 236.16C58.3907 236.176 58.5659 236.223 58.7092 236.303C58.8685 236.367 59.0198 236.47 59.1632 236.614C59.3065 236.741 59.4658 236.916 59.641 237.139L77.7496 260.265C77.7018 259.707 77.662 259.158 77.6301 258.616C77.5983 258.075 77.5824 257.573 77.5824 257.111V236.112H83.2443Z" fill="#0E0670"/>
<path d="M97.3875 270.657H90.9372V236.112H97.3875V270.657Z" fill="#0E0670"/>
<path d="M125.357 265.353V270.657H105.122V236.112H111.548V265.353H125.357Z" fill="#0E0670"/>
<path d="M161.676 253.384C161.676 255.917 161.254 258.266 160.41 260.432C159.582 262.582 158.403 264.445 156.874 266.022C155.345 267.599 153.506 268.833 151.356 269.725C149.206 270.601 146.817 271.039 144.189 271.039C141.577 271.039 139.196 270.601 137.046 269.725C134.896 268.833 133.048 267.599 131.503 266.022C129.974 264.445 128.788 262.582 127.944 260.432C127.099 258.266 126.677 255.917 126.677 253.384C126.677 250.852 127.099 248.511 127.944 246.361C128.788 244.195 129.974 242.323 131.503 240.747C133.048 239.17 134.896 237.944 137.046 237.068C139.196 236.176 141.577 235.73 144.189 235.73C145.941 235.73 147.589 235.937 149.134 236.351C150.679 236.749 152.096 237.322 153.386 238.071C154.677 238.804 155.831 239.703 156.85 240.77C157.886 241.822 158.762 243 159.478 244.306C160.195 245.612 160.737 247.03 161.103 248.559C161.485 250.088 161.676 251.696 161.676 253.384ZM155.107 253.384C155.107 251.489 154.852 249.793 154.342 248.296C153.832 246.783 153.108 245.501 152.168 244.45C151.228 243.398 150.082 242.594 148.728 242.037C147.39 241.479 145.877 241.201 144.189 241.201C142.501 241.201 140.98 241.479 139.626 242.037C138.288 242.594 137.141 243.398 136.186 244.45C135.246 245.501 134.521 246.783 134.012 248.296C133.502 249.793 133.247 251.489 133.247 253.384C133.247 255.28 133.502 256.984 134.012 258.497C134.521 259.994 135.246 261.268 136.186 262.319C137.141 263.355 138.288 264.151 139.626 264.708C140.98 265.266 142.501 265.544 144.189 265.544C145.877 265.544 147.39 265.266 148.728 264.708C150.082 264.151 151.228 263.355 152.168 262.319C153.108 261.268 153.832 259.994 154.342 258.497C154.852 256.984 155.107 255.28 155.107 253.384Z" fill="#0E0670"/>
<path d="M200.264 253.384C200.264 255.917 199.842 258.266 198.998 260.432C198.17 262.582 196.991 264.445 195.462 266.022C193.933 267.599 192.094 268.833 189.944 269.725C187.794 270.601 185.405 271.039 182.777 271.039C180.165 271.039 177.784 270.601 175.634 269.725C173.484 268.833 171.636 267.599 170.091 266.022C168.562 264.445 167.376 262.582 166.532 260.432C165.687 258.266 165.265 255.917 165.265 253.384C165.265 250.852 165.687 248.511 166.532 246.361C167.376 244.195 168.562 242.323 170.091 240.747C171.636 239.17 173.484 237.944 175.634 237.068C177.784 236.176 180.165 235.73 182.777 235.73C184.529 235.73 186.177 235.937 187.722 236.351C189.267 236.749 190.684 237.322 191.974 238.071C193.264 238.804 194.419 239.703 195.438 240.77C196.474 241.822 197.35 243 198.066 244.306C198.783 245.612 199.325 247.03 199.691 248.559C200.073 250.088 200.264 251.696 200.264 253.384ZM193.694 253.384C193.694 251.489 193.44 249.793 192.93 248.296C192.42 246.783 191.696 245.501 190.756 244.45C189.816 243.398 188.67 242.594 187.316 242.037C185.978 241.479 184.465 241.201 182.777 241.201C181.089 241.201 179.568 241.479 178.214 242.037C176.876 242.594 175.729 243.398 174.774 244.45C173.834 245.501 173.109 246.783 172.6 248.296C172.09 249.793 171.835 251.489 171.835 253.384C171.835 255.28 172.09 256.984 172.6 258.497C173.109 259.994 173.834 261.268 174.774 262.319C175.729 263.355 176.876 264.151 178.214 264.708C179.568 265.266 181.089 265.544 182.777 265.544C184.465 265.544 185.978 265.266 187.316 264.708C188.67 264.151 189.816 263.355 190.756 262.319C191.696 261.268 192.42 259.994 192.93 258.497C193.44 256.984 193.694 255.28 193.694 253.384Z" fill="#0E0670"/>
<path d="M214.471 256.954C214.36 257.13 214.244 257.258 214.122 257.335C214.001 257.401 213.846 257.435 213.658 257.435C213.459 257.435 213.243 257.379 213.011 257.269C212.79 257.158 212.53 257.036 212.231 256.904C211.933 256.76 211.59 256.633 211.203 256.522C210.827 256.412 210.379 256.356 209.859 256.356C209.051 256.356 208.416 256.528 207.951 256.871C207.498 257.213 207.271 257.661 207.271 258.214C207.271 258.579 207.387 258.889 207.619 259.143C207.863 259.387 208.178 259.602 208.565 259.79C208.963 259.978 209.411 260.15 209.909 260.305C210.406 260.448 210.91 260.609 211.418 260.786C211.938 260.963 212.447 261.167 212.945 261.4C213.442 261.621 213.885 261.908 214.272 262.262C214.67 262.605 214.985 263.02 215.217 263.507C215.461 263.993 215.582 264.579 215.582 265.265C215.582 266.084 215.433 266.841 215.134 267.538C214.847 268.224 214.416 268.821 213.84 269.33C213.265 269.827 212.552 270.22 211.7 270.508C210.86 270.784 209.887 270.922 208.781 270.922C208.194 270.922 207.619 270.867 207.055 270.756C206.502 270.657 205.966 270.513 205.446 270.325C204.937 270.137 204.462 269.916 204.019 269.661C203.588 269.407 203.206 269.131 202.874 268.832L203.82 267.273C203.942 267.085 204.086 266.941 204.251 266.841C204.417 266.742 204.627 266.692 204.882 266.692C205.136 266.692 205.374 266.764 205.595 266.908C205.827 267.051 206.093 267.206 206.392 267.372C206.69 267.538 207.039 267.693 207.437 267.837C207.846 267.98 208.36 268.052 208.98 268.052C209.466 268.052 209.881 267.997 210.224 267.886C210.578 267.765 210.865 267.61 211.087 267.422C211.319 267.234 211.485 267.018 211.584 266.775C211.695 266.52 211.75 266.261 211.75 265.995C211.75 265.597 211.628 265.271 211.385 265.016C211.153 264.762 210.838 264.541 210.439 264.353C210.052 264.165 209.604 263.999 209.096 263.855C208.598 263.7 208.084 263.534 207.553 263.357C207.033 263.18 206.519 262.976 206.01 262.743C205.512 262.5 205.064 262.196 204.666 261.831C204.279 261.466 203.964 261.018 203.721 260.487C203.488 259.956 203.372 259.315 203.372 258.563C203.372 257.866 203.51 257.202 203.787 256.572C204.063 255.942 204.467 255.394 204.998 254.93C205.54 254.454 206.209 254.078 207.005 253.801C207.813 253.514 208.742 253.37 209.792 253.37C210.965 253.37 212.032 253.564 212.994 253.951C213.957 254.338 214.758 254.847 215.4 255.477L214.471 256.954Z" fill="#0E0670"/>
<path d="M222.764 255.46C223.428 254.841 224.158 254.338 224.954 253.951C225.751 253.564 226.685 253.37 227.758 253.37C228.687 253.37 229.511 253.53 230.23 253.851C230.949 254.161 231.546 254.603 232.022 255.178C232.508 255.742 232.873 256.423 233.116 257.219C233.371 258.004 233.498 258.872 233.498 259.824V270.657H229.4V259.824C229.4 258.784 229.163 257.982 228.687 257.418C228.211 256.843 227.487 256.555 226.514 256.555C225.806 256.555 225.142 256.716 224.523 257.036C223.903 257.357 223.317 257.794 222.764 258.347V270.657H218.667V246.004H222.764V255.46Z" fill="#0E0670"/>
<path d="M246.387 263.39C245.204 263.446 244.208 263.551 243.401 263.706C242.593 263.849 241.946 264.037 241.46 264.27C240.973 264.502 240.625 264.773 240.415 265.083C240.204 265.392 240.099 265.73 240.099 266.095C240.099 266.814 240.309 267.328 240.73 267.637C241.161 267.947 241.72 268.102 242.405 268.102C243.246 268.102 243.97 267.953 244.579 267.654C245.198 267.344 245.801 266.88 246.387 266.261V263.39ZM236.997 256.008C238.955 254.216 241.31 253.32 244.064 253.32C245.06 253.32 245.95 253.486 246.735 253.818C247.521 254.139 248.184 254.592 248.726 255.178C249.268 255.754 249.677 256.445 249.954 257.252C250.241 258.06 250.385 258.944 250.385 259.907V270.657H248.527C248.14 270.657 247.841 270.602 247.631 270.491C247.421 270.369 247.255 270.132 247.133 269.778L246.769 268.55C246.337 268.937 245.917 269.28 245.508 269.579C245.098 269.866 244.673 270.109 244.23 270.309C243.788 270.508 243.312 270.657 242.803 270.756C242.306 270.867 241.753 270.922 241.144 270.922C240.426 270.922 239.762 270.828 239.154 270.64C238.545 270.441 238.02 270.148 237.578 269.761C237.135 269.374 236.792 268.893 236.549 268.318C236.306 267.743 236.184 267.073 236.184 266.31C236.184 265.879 236.256 265.453 236.4 265.033C236.544 264.602 236.776 264.192 237.097 263.805C237.428 263.418 237.854 263.053 238.374 262.71C238.894 262.367 239.53 262.069 240.282 261.814C241.045 261.56 241.93 261.355 242.936 261.201C243.943 261.035 245.093 260.935 246.387 260.902V259.907C246.387 258.767 246.144 257.927 245.657 257.385C245.17 256.832 244.468 256.555 243.55 256.555C242.886 256.555 242.333 256.633 241.891 256.788C241.46 256.942 241.078 257.119 240.746 257.319C240.415 257.507 240.11 257.678 239.834 257.833C239.568 257.988 239.27 258.065 238.938 258.065C238.65 258.065 238.407 257.993 238.208 257.849C238.009 257.695 237.849 257.518 237.727 257.319L236.997 256.008Z" fill="#0E0670"/>
<path d="M258.342 255.46C259.006 254.841 259.736 254.338 260.532 253.951C261.328 253.564 262.263 253.37 263.336 253.37C264.265 253.37 265.089 253.53 265.808 253.851C266.526 254.161 267.124 254.603 267.599 255.178C268.086 255.742 268.451 256.423 268.694 257.219C268.949 258.004 269.076 258.872 269.076 259.824V270.657H264.978V259.824C264.978 258.784 264.74 257.982 264.265 257.418C263.789 256.843 263.065 256.555 262.091 256.555C261.384 256.555 260.72 256.716 260.101 257.036C259.481 257.357 258.895 257.794 258.342 258.347V270.657H254.244V246.004H258.342V255.46Z" fill="#0E0670"/>
<path d="M283.358 256.954C283.248 257.13 283.132 257.258 283.01 257.335C282.888 257.401 282.733 257.435 282.545 257.435C282.346 257.435 282.131 257.379 281.898 257.269C281.677 257.158 281.417 257.036 281.119 256.904C280.82 256.76 280.477 256.633 280.09 256.522C279.714 256.412 279.266 256.356 278.746 256.356C277.939 256.356 277.303 256.528 276.838 256.871C276.385 257.213 276.158 257.661 276.158 258.214C276.158 258.579 276.274 258.889 276.507 259.143C276.75 259.387 277.065 259.602 277.452 259.79C277.85 259.978 278.298 260.15 278.796 260.305C279.294 260.448 279.797 260.609 280.306 260.786C280.826 260.963 281.334 261.167 281.832 261.4C282.33 261.621 282.772 261.908 283.159 262.262C283.557 262.605 283.873 263.02 284.105 263.507C284.348 263.993 284.47 264.579 284.47 265.265C284.47 266.084 284.321 266.841 284.022 267.538C283.734 268.224 283.303 268.821 282.728 269.33C282.153 269.827 281.439 270.22 280.588 270.508C279.747 270.784 278.774 270.922 277.668 270.922C277.082 270.922 276.507 270.867 275.943 270.756C275.39 270.657 274.853 270.513 274.333 270.325C273.825 270.137 273.349 269.916 272.907 269.661C272.475 269.407 272.094 269.131 271.762 268.832L272.707 267.273C272.829 267.085 272.973 266.941 273.139 266.841C273.305 266.742 273.515 266.692 273.769 266.692C274.024 266.692 274.261 266.764 274.483 266.908C274.715 267.051 274.98 267.206 275.279 267.372C275.578 267.538 275.926 267.693 276.324 267.837C276.733 267.98 277.248 268.052 277.867 268.052C278.354 268.052 278.768 267.997 279.111 267.886C279.465 267.765 279.753 267.61 279.974 267.422C280.206 267.234 280.372 267.018 280.472 266.775C280.582 266.52 280.638 266.261 280.638 265.995C280.638 265.597 280.516 265.271 280.273 265.016C280.04 264.762 279.725 264.541 279.327 264.353C278.94 264.165 278.492 263.999 277.983 263.855C277.485 263.7 276.971 263.534 276.44 263.357C275.92 263.18 275.406 262.976 274.897 262.743C274.4 262.5 273.952 262.196 273.554 261.831C273.166 261.466 272.851 261.018 272.608 260.487C272.376 259.956 272.26 259.315 272.26 258.563C272.26 257.866 272.398 257.202 272.674 256.572C272.951 255.942 273.354 255.394 273.885 254.93C274.427 254.454 275.096 254.078 275.893 253.801C276.7 253.514 277.629 253.37 278.68 253.37C279.852 253.37 280.92 253.564 281.882 253.951C282.844 254.338 283.646 254.847 284.287 255.477L283.358 256.954Z" fill="#0E0670"/>
<path d="M296.546 263.39C295.362 263.446 294.367 263.551 293.56 263.706C292.752 263.849 292.105 264.037 291.619 264.27C291.132 264.502 290.784 264.773 290.573 265.083C290.363 265.392 290.258 265.73 290.258 266.095C290.258 266.814 290.468 267.328 290.889 267.637C291.32 267.947 291.878 268.102 292.564 268.102C293.405 268.102 294.129 267.953 294.737 267.654C295.357 267.344 295.96 266.88 296.546 266.261V263.39ZM287.156 256.008C289.113 254.216 291.469 253.32 294.223 253.32C295.219 253.32 296.109 253.486 296.894 253.818C297.679 254.139 298.343 254.592 298.885 255.178C299.427 255.754 299.836 256.445 300.113 257.252C300.4 258.06 300.544 258.944 300.544 259.907V270.657H298.686C298.299 270.657 298 270.602 297.79 270.491C297.58 270.369 297.414 270.132 297.292 269.778L296.927 268.55C296.496 268.937 296.076 269.28 295.667 269.579C295.257 269.866 294.831 270.109 294.389 270.309C293.947 270.508 293.471 270.657 292.962 270.756C292.465 270.867 291.912 270.922 291.303 270.922C290.584 270.922 289.921 270.828 289.313 270.64C288.704 270.441 288.179 270.148 287.736 269.761C287.294 269.374 286.951 268.893 286.708 268.318C286.465 267.743 286.343 267.073 286.343 266.31C286.343 265.879 286.415 265.453 286.559 265.033C286.702 264.602 286.935 264.192 287.255 263.805C287.587 263.418 288.013 263.053 288.533 262.71C289.053 262.367 289.689 262.069 290.441 261.814C291.204 261.56 292.089 261.355 293.095 261.201C294.101 261.035 295.252 260.935 296.546 260.902V259.907C296.546 258.767 296.302 257.927 295.816 257.385C295.329 256.832 294.627 256.555 293.709 256.555C293.045 256.555 292.492 256.633 292.05 256.788C291.619 256.942 291.237 257.119 290.905 257.319C290.573 257.507 290.269 257.678 289.993 257.833C289.727 257.988 289.429 258.065 289.097 258.065C288.809 258.065 288.566 257.993 288.367 257.849C288.168 257.695 288.007 257.518 287.886 257.319L287.156 256.008Z" fill="#0E0670"/>
<path d="M319.36 253.636L312.608 270.657H308.892L302.14 253.636H305.524C305.834 253.636 306.088 253.707 306.287 253.851C306.497 253.995 306.636 254.177 306.702 254.399L309.987 263.49C310.164 264.021 310.319 264.541 310.451 265.049C310.584 265.558 310.7 266.067 310.8 266.576C310.91 266.067 311.032 265.558 311.165 265.049C311.297 264.541 311.458 264.021 311.646 263.49L314.997 254.399C315.074 254.177 315.213 253.995 315.412 253.851C315.611 253.707 315.849 253.636 316.125 253.636H319.36Z" fill="#0E0670"/>
<path d="M330.115 263.39C328.931 263.446 327.936 263.551 327.128 263.706C326.321 263.849 325.674 264.037 325.187 264.27C324.701 264.502 324.352 264.773 324.142 265.083C323.932 265.392 323.827 265.73 323.827 266.095C323.827 266.814 324.037 267.328 324.457 267.637C324.889 267.947 325.447 268.102 326.133 268.102C326.974 268.102 327.698 267.953 328.306 267.654C328.926 267.344 329.528 266.88 330.115 266.261V263.39ZM320.725 256.008C322.682 254.216 325.038 253.32 327.792 253.32C328.787 253.32 329.678 253.486 330.463 253.818C331.248 254.139 331.912 254.592 332.454 255.178C332.996 255.754 333.405 256.445 333.681 257.252C333.969 258.06 334.113 258.944 334.113 259.907V270.657H332.255C331.868 270.657 331.569 270.602 331.359 270.491C331.149 270.369 330.983 270.132 330.861 269.778L330.496 268.55C330.065 268.937 329.645 269.28 329.235 269.579C328.826 269.866 328.4 270.109 327.958 270.309C327.515 270.508 327.04 270.657 326.531 270.756C326.033 270.867 325.48 270.922 324.872 270.922C324.153 270.922 323.49 270.828 322.881 270.64C322.273 270.441 321.748 270.148 321.305 269.761C320.863 269.374 320.52 268.893 320.277 268.318C320.033 267.743 319.912 267.073 319.912 266.31C319.912 265.879 319.984 265.453 320.127 265.033C320.271 264.602 320.503 264.192 320.824 263.805C321.156 263.418 321.582 263.053 322.102 262.71C322.621 262.367 323.257 262.069 324.009 261.814C324.773 261.56 325.657 261.355 326.664 261.201C327.67 261.035 328.821 260.935 330.115 260.902V259.907C330.115 258.767 329.871 257.927 329.385 257.385C328.898 256.832 328.196 256.555 327.278 256.555C326.614 256.555 326.061 256.633 325.619 256.788C325.187 256.942 324.806 257.119 324.474 257.319C324.142 257.507 323.838 257.678 323.562 257.833C323.296 257.988 322.997 258.065 322.666 258.065C322.378 258.065 322.135 257.993 321.936 257.849C321.737 257.695 321.576 257.518 321.455 257.319L320.725 256.008Z" fill="#0E0670"/>
<path d="M341.838 256.589C342.368 255.571 342.999 254.775 343.729 254.2C344.459 253.613 345.321 253.32 346.317 253.32C347.102 253.32 347.732 253.492 348.208 253.835L347.943 256.904C347.887 257.103 347.804 257.247 347.694 257.335C347.594 257.413 347.456 257.451 347.279 257.451C347.113 257.451 346.864 257.424 346.532 257.368C346.212 257.313 345.897 257.285 345.587 257.285C345.133 257.285 344.73 257.352 344.376 257.484C344.022 257.617 343.701 257.811 343.414 258.065C343.137 258.308 342.888 258.607 342.667 258.961C342.457 259.315 342.258 259.719 342.07 260.172V270.657H337.972V253.636H340.378C340.798 253.636 341.091 253.713 341.257 253.868C341.423 254.012 341.533 254.277 341.589 254.664L341.838 256.589Z" fill="#0E0670"/>
</svg>
